<svg width="185" height="40" viewBox="0 0 185 40" fill="none" xmlns="http://www.w3.org/2000/svg">
<path d="M43.7914 15.9355H37.0405V16.8877H39.9023V24.5777H40.9296V16.8877H43.7914V15.9355Z" fill="#43434B"/>
<path d="M45.0044 24.5777H46.0318V20.5496H50.6546V24.5777H51.682V15.9355H50.6546V19.5975H46.0318V15.9355H45.0044V24.5777Z" fill="#43434B"/>
<path d="M53.8311 24.5777H54.8583V20.6961H56.1792L58.5274 24.5777H59.7871L57.3288 20.5984C58.6741 20.3909 59.4935 19.5731 59.4935 18.3159C59.4935 16.1797 57.7202 15.9355 56.0447 15.9355H53.8311V24.5777ZM54.8583 16.8877H56.3015C57.3043 16.8877 58.3928 17.0707 58.3928 18.3159C58.3928 19.7439 56.913 19.7439 55.7756 19.7439H54.8583V16.8877Z" fill="#43434B"/>
<path d="M61.3076 24.5777H66.9701V23.6256H62.335V20.5496H66.4565V19.5975H62.335V16.8877H66.75V15.9355H61.3076V24.5777Z" fill="#43434B"/>
<path d="M68.5576 24.5777H74.22V23.6256H69.5849V20.5496H73.7064V19.5975H69.5849V16.8877H73.9999V15.9355H68.5576V24.5777Z" fill="#43434B"/>
<path d="M78.2075 24.5777H79.3694L80.2622 22.4538H84.5917L85.4725 24.5777H86.6709L82.9893 15.9355H82.0229L78.2075 24.5777ZM84.2005 21.5017H80.6661L82.4637 17.2539H82.4877L84.2005 21.5017Z" fill="#43434B"/>
<path d="M87.8218 24.5777H88.849V20.6961H90.1698L92.5186 24.5777H93.7778L91.3202 20.5984C92.665 20.3909 93.4842 19.5731 93.4842 18.3159C93.4842 16.1797 91.7114 15.9355 90.0354 15.9355H87.8218V24.5777ZM88.849 16.8877H90.2922C91.2954 16.8877 92.3842 17.0707 92.3842 18.3159C92.3842 19.7439 90.9042 19.7439 89.7666 19.7439H88.849V16.8877Z" fill="#43434B"/>
<path d="M95.2983 24.5777H96.3255V20.6961H97.6463L99.9943 24.5777H101.254L98.7959 20.5984C100.142 20.3909 100.961 19.5731 100.961 18.3159C100.961 16.1797 99.1871 15.9355 97.5119 15.9355H95.2983V24.5777ZM96.3255 16.8877H97.7687C98.7719 16.8877 99.8599 17.0707 99.8599 18.3159C99.8599 19.7439 98.3799 19.7439 97.2431 19.7439H96.3255V16.8877Z" fill="#43434B"/>
<path d="M106.798 24.7973C109.428 24.7973 111.324 22.8688 111.324 20.2566C111.324 17.6445 109.428 15.7158 106.798 15.7158C104.169 15.7158 102.273 17.6445 102.273 20.2566C102.273 22.8688 104.169 24.7973 106.798 24.7973ZM106.798 23.8453C104.768 23.8453 103.374 22.2462 103.374 20.2566C103.374 18.2669 104.768 16.6679 106.798 16.6679C108.829 16.6679 110.223 18.2669 110.223 20.2566C110.223 22.2462 108.829 23.8453 106.798 23.8453Z" fill="#43434B"/>
<path d="M114.503 24.5777H115.628L117.78 17.2539H117.805L119.945 24.5777H121.058L123.602 15.9355H122.526L120.52 23.1129H120.496L118.38 15.9355H117.23L115.102 23.1129H115.078L113.108 15.9355H111.972L114.503 24.5777Z" fill="#43434B"/>
<path d="M129.704 16.7289C129.068 15.9844 128.248 15.7158 127.282 15.7158C125.766 15.7158 124.335 16.5458 124.335 18.2059C124.335 19.6463 125.264 20.1833 126.487 20.5861C128.028 21.0989 128.75 21.2819 128.75 22.3439C128.75 23.3326 127.747 23.8453 126.866 23.8453C126.12 23.8453 125.386 23.5157 125.02 22.8809L124.139 23.6012C124.726 24.4678 125.802 24.7973 126.806 24.7973C128.37 24.7973 129.85 23.9917 129.85 22.2706C129.85 20.574 128.603 20.1345 127.258 19.7073C125.876 19.2679 125.435 18.9139 125.435 18.1205C125.435 17.0952 126.378 16.6679 127.282 16.6679C127.906 16.6679 128.518 16.9121 128.86 17.4613L129.704 16.7289Z" fill="#43434B"/>
<path d="M141.908 17.0707C141.175 16.1186 140.025 15.7158 138.851 15.7158C136.283 15.7158 134.448 17.7177 134.448 20.2566C134.448 22.8809 136.368 24.7973 138.851 24.7973C140.233 24.7973 141.358 24.3213 142.129 23.2837L141.358 22.6369C140.747 23.4181 139.903 23.8453 138.851 23.8453C136.907 23.8453 135.549 22.2585 135.549 20.2566C135.549 18.3646 136.919 16.6679 138.851 16.6679C139.683 16.6679 140.502 17.0219 141.015 17.7177L141.908 17.0707Z" fill="#43434B"/>
<path d="M142.558 24.5777H143.719L144.612 22.4538H148.942L149.822 24.5777H151.021L147.34 15.9355H146.374L142.558 24.5777ZM148.55 21.5017H145.016L146.814 17.2539H146.838L148.55 21.5017Z" fill="#43434B"/>
<path d="M152.173 24.5777H153.201V20.6961H154.937C156.16 20.6961 157.774 20.1956 157.774 18.3036C157.774 16.4971 156.331 15.9355 154.741 15.9355H152.173V24.5777ZM153.201 16.8877H154.937C155.965 16.8877 156.673 17.3515 156.673 18.3159C156.673 19.2801 155.965 19.7439 154.937 19.7439H153.201V16.8877Z" fill="#43434B"/>
<path d="M159.422 24.5777H160.449V15.9355H159.422V24.5777Z" fill="#43434B"/>
<path d="M168.408 15.9355H161.658V16.8877H164.519V24.5777H165.547V16.8877H168.408V15.9355Z" fill="#43434B"/>
<path d="M167.495 24.5777H168.658L169.55 22.4538H173.879L174.76 24.5777H175.958L172.278 15.9355H171.311L167.495 24.5777ZM173.488 21.5017H169.954L171.751 17.2539H171.776L173.488 21.5017Z" fill="#43434B"/>
<path d="M177.111 24.5777H182.1V23.6256H178.138V15.9355H177.111V24.5777Z" fill="#43434B"/>
<path fill-rule="evenodd" clip-rule="evenodd" d="M14.8885 4.85053C15.1781 4.72484 15.516 4.83994 15.6682 5.11616L17.0138 7.55792C17.1765 7.85332 17.0686 8.22452 16.7726 8.387C16.4766 8.54948 16.1048 8.44172 15.942 8.14628L15.2302 6.85468L12.7321 13.3261C14.284 13.973 15.8294 14.8268 17.2896 15.9262C17.9946 16.457 18.6785 17.044 19.3327 17.6912L25.8881 11.1484H24.5513C24.2135 11.1484 23.9397 10.8752 23.9397 10.538C23.9397 10.2009 24.2135 9.92756 24.5513 9.92756H27.3647C27.7025 9.92756 27.9763 10.2009 27.9763 10.538V13.224C27.9763 13.5611 27.7025 13.8344 27.3647 13.8344C27.0269 13.8344 26.7531 13.5611 26.7531 13.224V12.0118L20.175 18.5772C21.7484 20.3368 23.1109 22.4867 24.1277 25.0884L30.259 22.6621L28.9986 22.2246C28.6796 22.1139 28.5109 21.766 28.6219 21.4475C28.7329 21.1291 29.0814 20.9608 29.4005 21.0715L32.214 22.0482C32.5241 22.1559 32.6937 22.4888 32.5981 22.8025L31.7419 25.6105C31.6435 25.933 31.3018 26.1149 30.9787 26.0168C30.6555 25.9186 30.4733 25.5776 30.5717 25.255L31.0582 23.6592L24.5439 26.237C25.3486 28.6411 25.8708 31.4017 26.0185 34.5609C26.0342 34.8976 25.7734 35.1834 25.4361 35.1992C25.0986 35.2148 24.8123 34.9546 24.7965 34.6178C24.6553 31.5956 24.1613 28.9675 23.4051 26.6876L4.4709 34.1801C4.24509 34.2695 3.9877 34.217 3.8151 34.0464C3.64251 33.8758 3.58742 33.6194 3.67475 33.3932L11.1506 14.0269C8.40197 13.0608 5.69798 12.7505 3.54174 12.857C3.20437 12.8736 2.91734 12.6141 2.90066 12.2774C2.88398 11.9407 3.14395 11.6542 3.48133 11.6376C5.78753 11.5238 8.66646 11.8542 11.5906 12.8872L14.0363 6.55159L12.5627 7.19104C12.2529 7.32547 11.8926 7.1838 11.758 6.87462C11.6233 6.56544 11.7652 6.20584 12.075 6.07141L14.8885 4.85053ZM12.2921 14.466L5.85385 31.1441L18.4677 18.5546C17.8528 17.9465 17.2117 17.3968 16.553 16.9008C15.1889 15.8739 13.7439 15.074 12.2921 14.466ZM19.3085 19.442L6.76882 31.9575L22.9907 25.5383C22.0355 23.0926 20.7645 21.0827 19.3085 19.442Z" fill="#43434B"/>
</svg>
