<svg width="53" height="59" viewBox="0 0 53 59" fill="none" xmlns="http://www.w3.org/2000/svg">
<path d="M42.0077 38.332L26.8003 47.1116V52.4633L46.642 41.0079L42.0077 38.332Z" fill="#6B1F10"/>
<path d="M38.6363 36.3867L26.8003 43.2194V46.1386L41.1646 37.8458L38.6363 36.3867Z" fill="#6B1F10"/>
<path d="M12.5841 37.8262L11.7456 38.3106L26.8769 47.0463V46.0775L12.5841 37.8262Z" fill="#1A1321"/>
<path d="M11.593 38.332L6.95752 41.0079L26.7992 52.4633V47.1116L11.593 38.332Z" fill="#6B1F10"/>
<path d="M41.1686 37.8262L26.877 46.0775V47.0463L42.0071 38.3106L41.1686 37.8262Z" fill="#1A1321"/>
<path d="M41.1646 37.8458L38.6363 36.3867L26.8003 43.2194V46.1386L26.9295 46.0648L26.9745 43.4593L38.7159 36.5586L41.0319 37.923L41.1646 37.8458Z" fill="#FBBC84"/>
<path d="M42.0061 38.332L41.8931 38.3966L46.6404 41.0079L42.0061 38.332Z" fill="#FBBC84"/>
<path d="M26.9122 47.0474L26.8003 47.1119V52.4637L26.8176 52.4544L26.9122 47.0474Z" fill="#FBBC84"/>
<path d="M26.7747 52.4495L26.7989 52.4633V47.1116L26.6421 47.0205L26.7747 52.4495Z" fill="#FBBC84"/>
<path d="M11.593 38.332L6.95752 41.0079L6.98059 41.0217L11.7452 38.4197L11.593 38.332Z" fill="#FBBC84"/>
<path d="M11.593 20.773L26.7992 11.9935V6.64062L6.95752 18.0972L11.593 20.773Z" fill="#FBBC84"/>
<path d="M11.593 20.7735L6.95752 18.0977V41.0085L11.593 38.3326V20.7735Z" fill="#EE8143"/>
<path d="M26.8003 11.9935L42.0077 20.773L46.642 18.0972L26.8003 6.64062V11.9935Z" fill="#B64826"/>
<path d="M42.0068 20.7735V38.3326L46.6411 41.0085V18.0977L42.0068 20.7735Z" fill="#7A2717"/>
<path d="M12.4343 21.2597L11.5923 20.7729V38.3321L12.4343 37.8454V21.2597Z" fill="#1A1321"/>
<path d="M26.8003 11.9937V12.9671L41.1646 21.26L42.0077 20.7732L26.8003 11.9937Z" fill="#1A1321"/>
<path d="M26.7985 12.9671V11.9937L11.5923 20.7732L12.4343 21.26L26.7985 12.9671Z" fill="#1A1321"/>
<path d="M41.168 37.8264L42.0065 38.3108V20.8394L41.168 21.3238V37.8264Z" fill="#1A1321"/>
<path d="M14.9638 36.3867L12.4355 37.8458L26.7998 46.1386V43.2194L14.9638 36.3867Z" fill="#7E2D18"/>
<path d="M14.9638 22.7188L12.4355 21.2598V37.8454L14.9638 36.3864V22.7188Z" fill="#E3714B"/>
<path d="M38.6362 36.3864L41.1645 37.8454V21.2598L38.6362 22.7188V36.3864Z" fill="#993D21"/>
<path d="M26.8003 15.886L38.6363 22.7187L41.1646 21.2596L26.8003 12.9668V15.886Z" fill="#BE4D27"/>
<path d="M14.9638 22.7187L26.7998 15.886V12.9668L12.4355 21.2596L14.9638 22.7187Z" fill="#F3BA8D"/>
<path d="M26.7994 15.8862L14.9634 22.7189V36.3865L26.7994 43.2192L38.6355 36.3865V22.7189L26.7994 15.8862Z" fill="url(#paint0_linear_58_5078)"/>
<path d="M21.4098 32.7652V26.3409L21.0557 26.1367V32.9694L21.4098 32.7652Z" fill="#231F20"/>
<path d="M26.9731 23.1277L32.5359 26.3399L32.8912 26.1357L26.9731 22.7183V23.1277Z" fill="#231F20"/>
<path d="M21.4098 26.3399L26.9737 23.1277V22.7183L21.0557 26.1357L21.4098 26.3399Z" fill="#231F20"/>
<path d="M32.5371 26.3409V32.7652L32.8924 32.9694V26.1367L32.5371 26.3409Z" fill="#231F20"/>
<path d="M26.9731 35.9773V36.3868L32.8912 32.9693L32.5359 32.7651L26.9731 35.9773Z" fill="#231F20"/>
<path d="M21.4098 32.7651L21.0557 32.9693L26.9737 36.3868V35.9773L21.4098 32.7651Z" fill="#231F20"/>
<path d="M23.536 31.5366L21.4092 32.765L26.9731 35.9772V33.5216L23.536 31.5366Z" fill="#EE8143"/>
<path d="M23.536 27.5694L26.9731 25.5845V23.1289L21.4092 26.3411L23.536 27.5694Z" fill="#F7FBFF"/>
<path d="M23.536 31.5363V27.5687L21.4092 26.3403V32.7647L23.536 31.5363Z" fill="#FBBC84"/>
<path d="M26.9731 23.1289V25.5845L30.4102 27.5694L32.5359 26.3411L26.9731 23.1289Z" fill="#FBBC84"/>
<path d="M30.4106 31.5363L32.5363 32.7647V26.3403L30.4106 27.5687V31.5363Z" fill="#E3714B"/>
<path d="M26.9731 33.5216V35.9772L32.5359 32.765L30.4102 31.5366L26.9731 33.5216Z" fill="#993D21"/>
<path d="M26.9732 25.584L23.5361 27.569V31.5366L26.9732 33.5216L30.4103 31.5366V27.569L26.9732 25.584Z" fill="#FBBC84"/>
<path opacity="0.55" d="M27.28 25.7612L23.5361 31.0622V31.5362L24.4427 32.0599L28.2696 26.3322L27.28 25.7612Z" fill="#F7FBFF"/>
<path opacity="0.55" d="M30.4104 27.9986V27.5684L29.4046 26.9883L25.6411 32.7517L26.8556 33.453L30.4104 27.9986Z" fill="#F7FBFF"/>
<path d="M30.4102 27.5694L32.5359 26.3411L30.4102 27.3734L27.1865 25.4218L26.9731 23.1289V25.5845L30.4102 27.5694Z" fill="#F7FBFF"/>
<path d="M30.5098 27.6241L32.5363 26.3403L30.4106 27.5687V31.5363L32.5363 32.7647L30.4799 31.5271L30.5098 27.6241Z" fill="#F7FBFF"/>
<path d="M26.9731 33.5216V35.9772L26.9985 35.9622L27.0412 33.615L30.4495 31.6185L32.5359 32.765L30.4102 31.5366L26.9731 33.5216Z" fill="#F7FBFF"/>
<path d="M26.9731 33.5216L23.536 31.5366L21.4092 32.765L21.4472 32.7869L23.5429 31.6866L26.9039 33.6381L26.942 35.9587L26.9731 35.9772V33.5216Z" fill="#F7FBFF"/>
<path d="M23.536 27.5687L21.4092 26.3403V26.3795L23.3826 27.6702C23.3826 27.6702 23.3907 31.3437 23.3757 31.4198C23.3642 31.4775 22.0424 32.293 21.4149 32.7266V32.7647L23.5418 31.5363L23.536 27.5687Z" fill="#F7FBFF"/>
<path d="M42.0073 20.7735L46.6416 18.0977L41.7686 20.6363L42.0073 20.7735Z" fill="#FBBC84"/>
<path d="M26.8003 11.9935L27.159 12.1999L26.8003 6.64062V11.9935Z" fill="#FBBC84"/>
<path d="M41.1646 21.2596L40.8831 21.097L38.6963 22.3242L27.3804 15.6334L27.2247 13.2113L26.8003 12.9668V15.886L38.6363 22.7187L41.1646 21.2596Z" fill="#FBBC84"/>
<path d="M41.1645 21.427V21.2598L38.6362 22.7188V36.3864L41.1645 37.8454V37.7197L38.8289 36.3483L38.9327 22.7834L41.1645 21.427Z" fill="#FBBC84"/>
<path d="M46.6411 18.0977L42.0068 20.7735V20.9154L46.6411 18.0977Z" fill="#FBBC84"/>
<path d="M42.0068 38.3328L46.6411 41.0087L42.0068 38.2256V38.3328Z" fill="#FBBC84"/>
<path d="M14.9638 22.7188L12.4355 21.2598V21.4812L14.6985 22.8676V36.2515L12.4355 37.6344V37.8454L14.9638 36.3864V22.7188Z" fill="#FBBC84"/>
<path d="M6.95752 40.9793V41.0082L11.593 38.3323V38.1489L6.95752 40.9793Z" fill="#FBBC84"/>
<path d="M11.593 20.965V20.7735L6.95752 18.0977V18.1265L11.593 20.965Z" fill="#FBBC84"/>
<path d="M14.9638 36.3867L12.4355 37.8458L12.612 37.9484L14.9638 36.6635L26.5541 43.4005L26.6187 46.0336L26.7998 46.1386V43.2194L14.9638 36.3867Z" fill="#FBBC84"/>
<defs>
<linearGradient id="paint0_linear_58_5078" x1="26.7994" y1="13.7306" x2="26.7994" y2="40.819" gradientUnits="userSpaceOnUse">
<stop stop-color="#E3714B"/>
<stop offset="1" stop-color="#6B1F10"/>
</linearGradient>
</defs>
</svg>
