<svg width="467" height="325" viewBox="0 0 467 325" fill="none" xmlns="http://www.w3.org/2000/svg">
<path d="M456.317 96.1898L456.318 96.1919C461.32 106.455 463.965 117.298 463.964 128.43C463.964 138.17 461.908 147.694 458.083 156.785C448.593 179.295 428.042 199.51 399.605 215.632L399.604 215.633C380.626 226.453 358.094 235.437 333.113 242.066C312.494 247.443 290.097 251.274 266.665 253.042L266.662 253.042C255.944 253.927 245.004 254.369 233.841 254.369C222.383 254.369 211.147 253.927 200.135 252.968L200.131 252.968C176.624 251.126 154.302 247.295 133.683 241.845C108.702 235.14 86.1705 226.082 67.1935 215.117L67.1922 215.116C45.2579 202.53 28.0805 187.457 17.1812 170.794C8.4937 157.511 3.79248 143.294 3.79248 128.429C3.79248 93.8043 29.45 62.3097 71.125 39.4421C112.781 16.5847 170.333 2.41699 233.841 2.41699C300.827 2.41699 361.202 18.1882 403.223 43.2881L403.224 43.2889C428.186 58.0843 446.677 76.1671 456.317 96.1898Z" stroke="white" stroke-opacity="0.14"/>
<path d="M333.114 242.953L333.113 242.953L133.686 242.732C108.705 236.029 86.1723 226.971 67.1942 216.078C39.7918 200.324 19.6789 180.695 9.81823 158.986L9.81768 158.985C5.25604 149.012 2.83203 138.607 2.83203 127.915C2.83158 92.9193 28.6021 61.0743 70.4518 37.949C112.284 14.8337 170.075 0.5 233.842 0.5C298.311 0.5 356.62 15.165 398.572 38.6476C427.676 54.9923 448.891 75.6503 458.751 98.604L458.751 98.6046C462.797 107.988 464.928 117.806 464.928 127.915C464.928 133.004 464.349 138.097 463.332 143.05C463.244 143.195 463.229 143.337 463.226 143.423C456.961 171.61 433.936 197.093 399.606 216.592C380.553 227.412 358.095 236.396 333.114 242.953Z" stroke="white" stroke-opacity="0.14"/>
<path d="M233.855 236.704C175.301 236.704 120.48 224.281 79.4942 201.723C42.1122 181.148 21.5254 155.117 21.5254 128.42C21.5254 101.724 42.1122 75.6909 79.4942 55.1157C120.48 32.5574 175.301 20.1348 233.855 20.1348C292.411 20.1348 347.231 32.5574 388.217 55.1157C425.598 75.6909 446.184 101.724 446.184 128.42C446.184 155.117 425.598 181.15 388.217 201.723C347.231 224.281 292.412 236.704 233.855 236.704Z" stroke="white" stroke-opacity="0.14" stroke-miterlimit="10"/>
<path d="M179.192 153.002L179.197 153.008L179.202 153.015C194.569 172.123 225.3 185.586 261.302 185.586C287.356 185.586 310.256 178.413 325.827 166.909C326.394 166.549 326.89 166.189 327.382 165.809L332.031 201.302C312.479 209.812 288.842 214.757 263.004 214.757C209.821 214.757 165.508 194.657 144.092 166.782L144.091 166.779C140.563 162.238 137.699 157.405 135.569 152.502L135.563 152.49L135.557 152.477C134.972 151.311 134.467 150.156 134.107 149.011L134.103 148.997L134.098 148.984C131.748 142.761 130.429 136.402 130.356 129.901L130.356 129.888L130.355 129.875C130.283 128.737 130.354 127.663 130.5 126.501L130.506 126.45L130.502 126.398C130.434 125.59 130.497 124.844 130.568 123.986L130.575 123.902C130.575 123.901 130.575 123.901 130.575 123.9C130.869 120.611 131.455 117.401 132.405 114.343L132.409 114.33L132.412 114.316C132.705 113.153 133.068 111.995 133.502 110.914L133.507 110.901L133.511 110.888C135.565 104.82 138.72 99.0403 142.834 93.6955L142.837 93.6914C143.718 92.5225 144.672 91.351 145.7 90.1797L145.7 90.1797L145.704 90.1755C166.97 65.3851 208.035 49.1133 253.753 49.1133C274.128 49.1133 293.689 52.2775 311.107 57.7941C311.488 57.9203 311.841 58.0289 312.181 58.1335C312.57 58.2534 312.942 58.368 313.321 58.4979L316.848 85.4977C300.283 75.7278 278.354 69.8016 254.937 69.8016C228.874 69.8016 205.152 77.2743 189.282 89.4512C187.797 90.5614 186.304 91.7518 184.954 93.0208C179.134 98.1545 174.724 104.112 171.954 110.529L171.954 110.529L171.949 110.541C171.503 111.652 171.054 112.844 170.679 114.04C169.63 117.178 169.03 120.466 168.879 123.826C168.805 124.72 168.803 125.618 168.876 126.446C168.804 127.668 168.957 128.878 169.103 129.967C169.854 136.841 172.402 143.33 176.583 149.435C176.92 149.973 177.315 150.507 177.705 151.026C177.71 151.108 177.734 151.194 177.786 151.273C177.84 151.355 177.906 151.405 177.957 151.434C178.15 151.686 178.341 151.924 178.529 152.158L178.535 152.166C178.758 152.443 178.975 152.714 179.192 153.002Z" stroke="white" stroke-opacity="0.14"/>
<path d="M270.531 93.8916L261.024 113.723H99.4556L112.797 93.8916H270.531Z" stroke="white" stroke-opacity="0.14"/>
<path d="M255.622 130.416L245.262 152.166H94.3216L108.442 130.416H255.622Z" stroke="white" stroke-opacity="0.14"/>
<path d="M325.048 166.559L325.048 166.56L329.143 197.761C309.591 206.27 285.953 211.216 260.115 211.216C209.224 211.216 166.379 192.809 144.073 166.76L144.073 166.76C140.171 162.211 136.866 157.449 134.371 152.477L134.365 152.466L134.359 152.455C133.7 151.287 133.122 150.131 132.69 148.984L132.684 148.968L132.677 148.953C129.886 142.803 128.127 136.444 127.614 129.869C127.539 128.764 127.467 127.599 127.467 126.439V126.43L127.466 126.421C127.393 124.379 127.466 122.412 127.686 120.37C127.907 118.316 128.2 116.27 128.639 114.303L128.641 114.294L128.642 114.286C128.861 113.124 129.152 111.959 129.448 110.858C131.134 104.792 133.848 99.0881 137.521 93.6704L137.529 93.6575L137.537 93.644C138.018 92.8295 138.552 92.0949 139.101 91.3388C139.383 90.9504 139.669 90.5563 139.954 90.1428C160.333 63.3879 203.006 45.6445 250.864 45.6445C272.086 45.6445 292.427 48.9934 310.435 54.9632L310.763 57.3822L310.763 57.3849L313.961 81.9609C297.399 72.2606 275.54 66.3328 252.048 66.3328C223.535 66.3328 197.797 75.3596 182.068 89.4762L182.068 89.4761L182.06 89.4837L181.966 89.5719C180.748 90.7149 179.579 91.8116 178.481 93.0513C173.482 98.3335 169.814 104.223 167.79 110.574L167.79 110.576C167.757 110.679 167.725 110.781 167.693 110.884C167.361 111.934 167.029 112.984 166.886 114.098C166.364 116.117 166.065 118.208 165.99 120.297C165.916 122.382 165.99 124.467 166.214 126.481C166.285 127.598 166.484 128.65 166.686 129.718C166.704 129.811 166.721 129.904 166.739 129.997L166.739 129.997L166.74 130.006C168.165 136.881 171.46 143.441 176.309 149.466C176.719 150.01 177.187 150.55 177.712 151.089C177.724 151.15 177.747 151.213 177.786 151.271C177.839 151.353 177.906 151.403 177.957 151.433C178.391 151.997 178.886 152.554 179.379 153.048C195.558 170.285 224.715 182.043 258.414 182.043C285.338 182.043 308.84 174.357 324.494 162.265L325.048 166.559Z" stroke="white" stroke-opacity="0.14"/>
<path d="M267.648 90.3799L258.141 110.211H96.5728L109.914 90.3799H267.648Z" stroke="white" stroke-opacity="0.14"/>
<path d="M258.193 124.781L247.832 146.531H96.8929L111.013 124.781H258.193Z" stroke="white" stroke-opacity="0.14"/>
<path d="M66.4437 213.558V285.808C64.3309 284.611 62.2233 283.359 60.1734 282.107L60.1729 282.107C36.6156 267.754 19.0055 250.481 9.29 231.408C3.84447 220.627 0.906738 209.269 0.906738 197.553V136.083C2.26048 144.106 4.96979 151.902 8.91905 159.426L8.91984 159.427C11.0783 163.505 13.5325 167.435 16.3573 171.362L16.358 171.363C27.8377 187.235 45.0547 201.539 66.4437 213.558Z" stroke="white" stroke-opacity="0.14"/>
<path d="M133.038 312.04C108.486 305.595 86.3238 296.863 67.4634 286.358V214.109C86.3661 224.576 108.526 233.265 133.038 239.681V312.04Z" stroke="white" stroke-opacity="0.14"/>
<path d="M199.611 323.152C176.48 321.305 154.446 317.593 134.037 312.3V239.941C154.458 245.22 176.491 248.921 199.611 250.763V323.152Z" stroke="white" stroke-opacity="0.14"/>
<path d="M200.611 250.841C211.328 251.669 222.271 252.107 233.398 252.107C244.526 252.107 255.469 251.67 266.185 250.841V323.23C255.469 324.061 244.527 324.499 233.398 324.499C222.269 324.499 211.326 324.061 200.611 323.23V250.841Z" stroke="white" stroke-opacity="0.14"/>
<path d="M332.758 239.941V312.301C312.349 317.593 290.314 321.305 267.184 323.153V250.763C290.304 248.92 312.337 245.219 332.758 239.941Z" stroke="white" stroke-opacity="0.14"/>
<path d="M399.334 286.359C380.473 296.864 358.31 305.595 333.759 312.04V239.682C358.271 233.267 380.431 224.577 399.334 214.11V286.359Z" stroke="white" stroke-opacity="0.14"/>
<path d="M400.332 213.552C436.674 193.185 460.824 166.156 465.906 136.069V197.563C465.906 231.732 440.98 262.881 400.332 285.798V213.552Z" stroke="white" stroke-opacity="0.14"/>
<path d="M463.227 143.438L463.217 143.436C463.223 143.411 463.229 143.391 463.234 143.377C463.234 143.376 463.234 143.376 463.234 143.376M463.227 143.438L464.187 143.681M463.227 143.438L463.393 143.481M463.227 143.438C463.226 143.452 463.225 143.466 463.225 143.481H463.393M463.227 143.438C463.227 143.438 463.227 143.438 463.227 143.438C463.227 143.43 463.228 143.423 463.229 143.416L463.227 143.438ZM463.234 143.376C463.239 143.36 463.244 143.345 463.249 143.331C463.255 143.311 463.261 143.293 463.267 143.278C463.28 143.239 463.288 143.216 463.295 143.195L463.774 143.338L464.109 143.481L464.222 143.529C464.224 143.515 464.225 143.498 464.225 143.481V143.53L464.234 143.533C464.229 143.545 464.225 143.555 464.221 143.563L464.217 143.571L464.216 143.579C464.212 143.597 464.208 143.613 464.204 143.627M463.234 143.376C463.246 143.307 463.266 143.254 463.278 143.222C463.288 143.198 463.298 143.176 463.304 143.164L463.304 143.164L463.313 143.143L464.253 143.482C464.24 143.525 464.225 143.568 464.214 143.598L464.211 143.607C464.208 143.614 464.206 143.621 464.204 143.627M463.234 143.376L464.186 143.683M464.204 143.627C464.196 143.65 464.191 143.666 464.187 143.681M464.204 143.627C464.202 143.634 464.2 143.641 464.198 143.646C464.194 143.661 464.189 143.674 464.187 143.68L464.187 143.681M464.187 143.681C464.186 143.682 464.186 143.682 464.186 143.683M464.186 143.683L464.186 143.683M464.186 143.683L464.185 143.686C464.185 143.685 464.185 143.684 464.186 143.683M464.186 143.683C464.187 143.679 464.189 143.671 464.192 143.661L463.705 143.549L463.461 143.481H463.411H463.393M464.186 143.683L463.393 143.481M463.317 143.11L464.289 143.344C464.952 140.934 465.493 138.503 465.907 136.051V197.562C465.907 231.941 440.677 263.26 399.59 286.215C380.514 296.874 358.045 305.714 333.134 312.203C312.461 317.589 290.115 321.35 266.647 323.195C255.947 324.036 245.019 324.487 233.908 324.5V140.9C233.912 140.887 233.916 140.874 233.92 140.861L233.908 140.857V140.819H233.808L233.793 140.814H233.908V0.500005C298.351 0.509851 356.634 15.1727 398.571 38.6482C427.675 54.992 448.891 75.6501 458.751 98.6049L458.751 98.6055C462.797 107.988 464.928 117.806 464.928 127.915C464.928 133.025 464.342 138.138 463.317 143.11Z" stroke="white" stroke-opacity="0.14"/>
</svg>
