<svg width="20" height="21" viewBox="0 0 20 21" fill="none" xmlns="http://www.w3.org/2000/svg">
<g clip-path="url(#clip0_63_122)">
<path d="M8.33333 3.37988V5.04655H4.16667V16.7132H15.8333V12.5465H17.5V17.5465C17.5 17.7676 17.4122 17.9795 17.2559 18.1358C17.0996 18.2921 16.8877 18.3799 16.6667 18.3799H3.33333C3.11232 18.3799 2.90036 18.2921 2.74408 18.1358C2.5878 17.9795 2.5 17.7676 2.5 17.5465V4.21322C2.5 3.9922 2.5878 3.78024 2.74408 3.62396C2.90036 3.46768 3.11232 3.37988 3.33333 3.37988H8.33333ZM14.655 5.04655H10.8333V3.37988H17.5V10.0465H15.8333V6.22488L10 12.0582L8.82167 10.8799L14.655 5.04655Z" fill="#26C6DA"/>
</g>
<defs>
<clipPath id="clip0_63_122">
<rect width="20" height="20" fill="white" transform="translate(0 0.879883)"/>
</clipPath>
</defs>
</svg>
