<svg width="54" height="59" viewBox="0 0 54 59" fill="none" xmlns="http://www.w3.org/2000/svg">
<path d="M12.7539 37.7373L11.918 38.2225L27.0017 46.9702V46.001L12.7539 37.7373Z" fill="#1A1321"/>
<path d="M42.0854 38.2441L26.9258 47.0369V52.3966L46.7067 40.924L42.0854 38.2441Z" fill="#CB9231"/>
<path d="M38.7256 36.2949L26.9258 43.1378V46.0615L41.2449 37.7561L38.7256 36.2949Z" fill="#CD9433"/>
<path d="M11.7641 38.2441L7.14404 40.924L26.9249 52.3966V47.0369L11.7641 38.2441Z" fill="#CE942F"/>
<path d="M41.2449 37.7561L38.7256 36.2949L26.9258 43.1378V46.0615L27.0534 45.9875L27.0983 43.3781L38.8037 36.467L41.1138 37.8324L41.2449 37.7561Z" fill="#EFF0EA"/>
<path d="M15.125 36.2949L12.6045 37.7561L26.9247 46.0615V43.1378L15.125 36.2949Z" fill="#D29C41"/>
<path d="M42.0852 38.2441L41.9736 38.3088L46.7064 40.924L42.0852 38.2441Z" fill="#EFF0EA"/>
<path d="M27.0367 46.9717L26.9258 47.0364V52.3961L26.9431 52.3869L27.0367 46.9717Z" fill="#EFF0EA"/>
<path d="M15.125 36.2949L12.6045 37.7561L12.7804 37.8578L15.125 36.5722L26.6787 43.3192L26.7431 45.9563L26.9247 46.0615V43.1378L15.125 36.2949Z" fill="#EFF0EA"/>
<path d="M26.9011 52.382L26.9253 52.3958V47.0361L26.7671 46.9448L26.9011 52.382Z" fill="#EFF0EA"/>
<path d="M11.7641 38.2441L7.14404 40.924L7.16703 40.9379L11.9171 38.3319L11.7641 38.2441Z" fill="#EFF0EA"/>
<path d="M11.7641 20.6585L26.9249 11.8658V6.50488L7.14404 17.9787L11.7641 20.6585Z" fill="#FFC469"/>
<path d="M11.7641 20.6589L7.14404 17.979V40.9243L11.7641 38.2444V20.6589Z" fill="#CD9C45"/>
<path d="M26.9258 11.8658L42.0854 20.6585L46.7067 17.9787L26.9258 6.50488V11.8658Z" fill="#FEC773"/>
<path d="M42.085 20.6589V38.2444L46.7062 40.9243V17.979L42.085 20.6589Z" fill="#FDC775"/>
<path d="M12.6042 21.1452L11.7637 20.6577V38.2432L12.6042 37.7558V21.1452Z" fill="#1A1321"/>
<path d="M26.9258 11.8657V12.8406L41.2449 21.1459L42.0854 20.6585L26.9258 11.8657Z" fill="#1A1321"/>
<path d="M26.9245 12.8406V11.8657L11.7637 20.6585L12.6042 21.1459L26.9245 12.8406Z" fill="#1A1321"/>
<path d="M41.2485 37.7372L42.0845 38.2223V20.7246L41.2485 21.2098V37.7372Z" fill="#1A1321"/>
<path d="M15.125 22.6072L12.6045 21.146V37.7566L15.125 36.2954V22.6072Z" fill="#E3AA4B"/>
<path d="M38.7251 36.2954L41.2444 37.7566V21.146L38.7251 22.6072V36.2954Z" fill="#FDC775"/>
<path d="M26.9258 15.7649L38.7256 22.6078L41.2449 21.1466L26.9258 12.8413V15.7649Z" fill="#FEC773"/>
<path d="M15.125 22.6078L26.9247 15.7649V12.8413L12.6045 21.1466L15.125 22.6078Z" fill="#FECE85"/>
<path d="M26.9257 15.7642L15.126 22.6071V36.2952L26.9257 43.1381L38.7255 36.2952V22.6071L26.9257 15.7642Z" fill="url(#paint0_linear_58_5189)"/>
<path d="M21.5519 32.6682V26.2342L21.1978 26.0298V32.8727L21.5519 32.6682Z" fill="#231F20"/>
<path d="M27.0977 23.017L32.6445 26.234L32.9975 26.0295L27.0977 22.6069V23.017Z" fill="#231F20"/>
<path d="M21.5519 26.234L27.0976 23.017V22.6069L21.1978 26.0295L21.5519 26.234Z" fill="#231F20"/>
<path d="M32.645 26.2342V32.6682L32.998 32.8727V26.0298L32.645 26.2342Z" fill="#231F20"/>
<path d="M27.0977 35.8855V36.2955L32.9975 32.8729L32.6445 32.6685L27.0977 35.8855Z" fill="#231F20"/>
<path d="M21.5519 32.6685L21.1978 32.8729L27.0976 36.2955V35.8855L21.5519 32.6685Z" fill="#231F20"/>
<path d="M23.6721 31.438L21.5518 32.6682L27.0975 35.8852V33.4259L23.6721 31.438Z" fill="#CE942F"/>
<path d="M23.6721 27.4636L27.0975 25.4768V23.0176L21.5518 26.2346L23.6721 27.4636Z" fill="#FFC469"/>
<path d="M23.6721 31.4382V27.4634L21.5518 26.2344V32.6684L23.6721 31.4382Z" fill="#CD9C45"/>
<path d="M27.0977 23.0176V25.4768L30.5242 27.4636L32.6445 26.2346L27.0977 23.0176Z" fill="#FEC773"/>
<path d="M30.5239 31.4382L32.6442 32.6684V26.2344L30.5239 27.4634V31.4382Z" fill="#FDC775"/>
<path d="M27.0977 33.4259V35.8852L32.6445 32.6682L30.5242 31.438L27.0977 33.4259Z" fill="#CB9231"/>
<path d="M27.0973 25.4771L23.6719 27.465V31.4386L27.0973 33.4266L30.5238 31.4386V27.465L27.0973 25.4771Z" fill="url(#paint1_linear_58_5189)"/>
<path opacity="0.55" d="M27.4043 25.6548L23.6719 30.9637V31.4385L24.5745 31.9629L28.3897 26.2266L27.4043 25.6548Z" fill="#F7FBFF"/>
<path opacity="0.55" d="M30.5245 27.8957V27.4637L29.523 26.8838L25.771 32.6559L26.9806 33.3582L30.5245 27.8957Z" fill="#F7FBFF"/>
<path d="M30.5242 27.4636L32.6445 26.2346L30.5242 27.2684L27.3115 25.314L27.0977 23.0176V25.4768L30.5242 27.4636Z" fill="#F7FBFF"/>
<path d="M30.624 27.52L32.6442 26.2344L30.5239 27.4634V31.4382L32.6442 32.6684L30.5929 31.4289L30.624 27.52Z" fill="#F7FBFF"/>
<path d="M27.0977 33.4259V35.8852L27.1241 35.8702L27.1667 33.5195L30.5633 31.52L32.6445 32.6682L30.5242 31.438L27.0977 33.4259Z" fill="#F7FBFF"/>
<path d="M27.0975 33.4259L23.6721 31.438L21.5518 32.6682L21.5886 32.689L23.6778 31.5882L27.0296 33.5426L27.0665 35.8667L27.0975 35.8852V33.4259Z" fill="#F7FBFF"/>
<path d="M23.6721 27.4646L21.5518 26.2344V26.2736L23.5192 27.5662C23.5192 27.5662 23.5261 31.2453 23.5111 31.3215C23.4996 31.3781 22.183 32.1959 21.5564 32.6303V32.6684L23.6767 31.4382L23.6721 27.4646Z" fill="#F7FBFF"/>
<path d="M42.0852 20.6589L46.7064 17.979L41.8472 20.5203L42.0852 20.6589Z" fill="#EFF0EA"/>
<path d="M26.9258 11.8658L27.2834 12.0725L26.9258 6.50488V11.8658Z" fill="#EFF0EA"/>
<path d="M41.2449 21.1466L40.9643 20.9837L38.7842 22.2128L27.503 15.5119L27.3478 13.0862L26.9258 12.8413V15.7649L38.7256 22.6078L41.2449 21.1466Z" fill="#EFF0EA"/>
<path d="M41.2444 21.3135V21.146L38.7251 22.6072V36.2954L41.2444 37.7566V37.6295L38.9171 36.2561L39.0206 22.6719L41.2444 21.3135Z" fill="#EFF0EA"/>
<path d="M46.7062 17.979L42.085 20.6589V20.801L46.7062 17.979Z" fill="#EFF0EA"/>
<path d="M42.085 38.2442L46.7062 40.924L42.085 38.1367V38.2442Z" fill="#EFF0EA"/>
<path d="M15.125 22.6072L12.6045 21.146V21.3678L14.8605 22.7551V36.1602L12.6045 37.5441V37.7566L15.125 36.2954V22.6072Z" fill="#EFF0EA"/>
<path d="M7.14404 40.8947V40.9236L11.7641 38.2437V38.0601L7.14404 40.8947Z" fill="#EFF0EA"/>
<path d="M11.7641 20.8506V20.6589L7.14404 17.979V18.0079L11.7641 20.8506Z" fill="#EFF0EA"/>
<path d="M26.9247 12.8413L26.7695 12.9303L26.7097 15.4057L15.125 22.3191L12.7804 21.0438L12.6045 21.1466L15.125 22.6078L26.9247 15.7649V12.8413Z" fill="#EFF0EA"/>
<path d="M11.9136 20.5722L7.14404 17.979L11.7641 20.6589L11.9136 20.5722Z" fill="#EFF0EA"/>
<path d="M26.9266 11.8658V6.50488L26.7949 11.942L26.9266 11.8658Z" fill="#EFF0EA"/>
<defs>
<linearGradient id="paint0_linear_58_5189" x1="26.9257" y1="17.8172" x2="26.9257" y2="43.1381" gradientUnits="userSpaceOnUse">
<stop stop-color="#C09645"/>
<stop offset="0.5" stop-color="#FFC977"/>
<stop offset="1" stop-color="#C09645"/>
</linearGradient>
<linearGradient id="paint1_linear_58_5189" x1="27.0979" y1="26.0733" x2="27.0979" y2="33.4266" gradientUnits="userSpaceOnUse">
<stop stop-color="#C09645"/>
<stop offset="0.5" stop-color="#FFC977"/>
<stop offset="1" stop-color="#C09645"/>
</linearGradient>
</defs>
</svg>
