<svg width="32" height="33" viewBox="0 0 32 33" fill="none" xmlns="http://www.w3.org/2000/svg">
<mask id="mask0_63_133" style="mask-type:luminance" maskUnits="userSpaceOnUse" x="4" y="4" width="24" height="25">
<path d="M27.2727 4.88574H4V28.1585H27.2727V4.88574Z" fill="white"/>
</mask>
<g mask="url(#mask0_63_133)">
<path fill-rule="evenodd" clip-rule="evenodd" d="M21.8273 26.9747C22.1396 27.1958 22.542 27.2511 22.9007 27.1153C23.2596 26.9785 23.5233 26.6721 23.6028 26.3007C24.4455 22.3405 26.4896 12.3167 27.2567 8.71434C27.3148 8.44282 27.2178 8.16064 27.0045 7.97931C26.7912 7.79797 26.4954 7.74561 26.2316 7.84355C22.1657 9.34852 9.64402 14.0467 4.52596 15.9405C4.20111 16.0607 3.98972 16.373 4.00039 16.7153C4.01202 17.0585 4.24281 17.3563 4.57542 17.4561C6.87069 18.1427 9.88353 19.0978 9.88353 19.0978C9.88353 19.0978 11.2916 23.35 12.0256 25.5124C12.1177 25.7839 12.3301 25.9972 12.6103 26.0709C12.8896 26.1436 13.1883 26.0671 13.3967 25.8702C14.5759 24.757 16.3989 23.0358 16.3989 23.0358C16.3989 23.0358 19.8627 25.5754 21.8273 26.9747ZM11.1509 18.5607L12.7791 23.9308L13.1407 20.5301C13.1407 20.5301 19.4312 14.8564 23.0171 11.6225C23.1218 11.5274 23.1364 11.3684 23.0491 11.2569C22.9628 11.1454 22.8038 11.1192 22.6845 11.1948C18.5284 13.8489 11.1509 18.5607 11.1509 18.5607Z" fill="#26C6DA"/>
</g>
</svg>
