<svg width="33" height="33" viewBox="0 0 33 33" fill="none" xmlns="http://www.w3.org/2000/svg">
<path d="M27.628 11.1107C27.3541 10.0818 26.5324 9.26138 25.5019 8.98789C23.6367 8.47998 16.1367 8.47998 16.1367 8.47998C16.1367 8.47998 8.62368 8.493 6.75846 9.00091C5.72802 9.2744 4.90628 10.0949 4.63237 11.1237C4.13672 12.986 4.13672 16.88 4.13672 16.88C4.13672 16.88 4.13672 20.7739 4.64541 22.6493C4.91933 23.6781 5.74107 24.4986 6.7715 24.7721C8.63672 25.28 16.1367 25.28 16.1367 25.28C16.1367 25.28 23.6367 25.28 25.5019 24.7721C26.5324 24.4986 27.3541 23.6781 27.628 22.6493C28.1367 20.787 28.1367 16.88 28.1367 16.88C28.1367 16.88 28.1367 12.986 27.628 11.1107ZM13.7367 20.4744V13.2856L19.9715 16.88L13.7367 20.4744Z" fill="#26C6DA"/>
</svg>
