<svg width="32" height="33" viewBox="0 0 32 33" fill="none" xmlns="http://www.w3.org/2000/svg">
<g clip-path="url(#clip0_63_125)">
<path d="M11.5502 26.6301C20.6045 26.6301 25.5583 19.1268 25.5583 12.622C25.5583 12.4111 25.5536 12.1954 25.5442 11.9845C26.5079 11.2876 27.3395 10.4244 28 9.43543C27.1025 9.83473 26.1496 10.0955 25.1739 10.2089C26.2013 9.59304 26.9705 8.6256 27.3391 7.48589C26.3726 8.05868 25.3156 8.46274 24.2134 8.68074C23.4708 7.89169 22.489 7.36924 21.4197 7.19418C20.3504 7.01911 19.2532 7.20118 18.2977 7.71222C17.3423 8.22327 16.5818 9.03483 16.1338 10.0214C15.6859 11.008 15.5754 12.1147 15.8195 13.1704C13.8625 13.0722 11.9479 12.5638 10.2 11.6782C8.45203 10.7926 6.90969 9.54956 5.67297 8.02964C5.0444 9.11337 4.85206 10.3958 5.13503 11.6162C5.418 12.8367 6.15506 13.9036 7.19641 14.6001C6.41463 14.5753 5.64998 14.3648 4.96563 13.986V14.047C4.96492 15.1843 5.3581 16.2867 6.07831 17.1669C6.79852 18.0471 7.80132 18.6507 8.91625 18.8751C8.19206 19.0733 7.43198 19.1021 6.69484 18.9595C7.00945 19.9376 7.62157 20.793 8.44577 21.4065C9.26997 22.0199 10.2651 22.3607 11.2923 22.3814C9.54842 23.7512 7.39417 24.4943 5.17656 24.4907C4.78329 24.4901 4.3904 24.466 4 24.4186C6.25286 25.8639 8.87353 26.6315 11.5502 26.6301Z" fill="#26C6DA"/>
</g>
<defs>
<clipPath id="clip0_63_125">
<rect width="24" height="24" fill="white" transform="translate(4 4.87988)"/>
</clipPath>
</defs>
</svg>
