<svg width="32" height="33" viewBox="0 0 32 33" fill="none" xmlns="http://www.w3.org/2000/svg">
<path d="M13.8881 14.9478C13.2041 14.9478 12.6641 15.5478 12.6641 16.2798C12.6641 17.0118 13.2161 17.6118 13.8881 17.6118C14.5721 17.6118 15.1121 17.0118 15.1121 16.2798C15.1241 15.5478 14.5721 14.9478 13.8881 14.9478ZM18.2681 14.9478C17.5841 14.9478 17.0441 15.5478 17.0441 16.2798C17.0441 17.0118 17.5961 17.6118 18.2681 17.6118C18.9521 17.6118 19.4921 17.0118 19.4921 16.2798C19.4921 15.5478 18.9521 14.9478 18.2681 14.9478Z" fill="#26C6DA"/>
<path d="M24.1001 4.87988H8.02006C6.66406 4.87988 5.56006 5.98388 5.56006 7.35188V23.5759C5.56006 24.9439 6.66406 26.0479 8.02006 26.0479H21.6281L20.9921 23.8279L22.5281 25.2559L23.9801 26.5999L26.5601 28.8799V7.35188C26.5601 5.98388 25.4561 4.87988 24.1001 4.87988ZM19.4681 20.5519C19.4681 20.5519 19.0361 20.0359 18.6761 19.5799C20.2481 19.1359 20.8481 18.1519 20.8481 18.1519C20.3561 18.4759 19.8881 18.7039 19.4681 18.8599C18.8681 19.1119 18.2921 19.2799 17.7281 19.3759C16.5761 19.5919 15.5201 19.5319 14.6201 19.3639C13.9361 19.2319 13.3481 19.0399 12.8561 18.8479C12.5801 18.7399 12.2801 18.6079 11.9801 18.4399C11.9441 18.4159 11.9081 18.4039 11.8721 18.3799C11.8481 18.3679 11.8361 18.3559 11.8241 18.3439C11.6081 18.2239 11.4881 18.1399 11.4881 18.1399C11.4881 18.1399 12.0641 19.0999 13.5881 19.5559C13.2281 20.0119 12.7841 20.5519 12.7841 20.5519C10.1321 20.4679 9.12406 18.7279 9.12406 18.7279C9.12406 14.8639 10.8521 11.7319 10.8521 11.7319C12.5801 10.4359 14.2241 10.4719 14.2241 10.4719L14.3441 10.6159C12.1841 11.2399 11.1881 12.1879 11.1881 12.1879C11.1881 12.1879 11.4521 12.0439 11.8961 11.8399C13.1801 11.2759 14.2001 11.1199 14.6201 11.0839C14.6921 11.0719 14.7521 11.0599 14.8241 11.0599C15.5561 10.9639 16.3841 10.9399 17.2481 11.0359C18.3881 11.1679 19.6121 11.5039 20.8601 12.1879C20.8601 12.1879 19.9121 11.2879 17.8721 10.6639L18.0401 10.4719C18.0401 10.4719 19.6841 10.4359 21.4121 11.7319C21.4121 11.7319 23.1401 14.8639 23.1401 18.7279C23.1401 18.7279 22.1201 20.4679 19.4681 20.5519V20.5519Z" fill="#26C6DA"/>
</svg>
