<svg width="33" height="33" viewBox="0 0 33 33" fill="none" xmlns="http://www.w3.org/2000/svg">
<path d="M25.3027 23.9682L26.9369 25.5459V25.5982H18.6474V25.5459L20.3112 23.9682C20.4887 23.8222 20.5736 23.5902 20.5331 23.3625V13.2759C20.5331 12.8497 20.5331 12.274 20.607 11.7805L15.0166 25.8001H14.9501L9.15999 12.9021C9.03428 12.5806 8.9973 12.5581 8.91596 12.3413V20.7979C8.84664 21.3639 8.94171 21.938 9.18957 22.4503L11.5189 25.5459V25.5982H5.33691V25.5459L7.66625 22.4429C7.91228 21.9326 8.00729 21.3614 7.93986 20.7979V11.4515C7.97773 10.9913 7.84017 10.5339 7.55533 10.1729L5.90631 8.01206V7.95972H11.8221L16.7766 18.8838L21.1394 7.95972H26.9295V8.01206L25.3027 9.84395C25.1077 9.98806 25.0103 10.2314 25.0513 10.472V23.3625C25.0081 23.5971 25.1069 23.8351 25.3027 23.9682Z" fill="#26C6DA"/>
</svg>
