<svg width="33" height="33" viewBox="0 0 33 33" fill="none" xmlns="http://www.w3.org/2000/svg">
<path fill-rule="evenodd" clip-rule="evenodd" d="M28.1367 16.8799C28.1367 23.5073 22.7641 28.8799 16.1367 28.8799C9.5093 28.8799 4.13672 23.5073 4.13672 16.8799C4.13672 10.2525 9.5093 4.87988 16.1367 4.87988C22.7641 4.87988 28.1367 10.2525 28.1367 16.8799ZM22.3823 15.1255C23.3508 15.1255 24.1367 15.9114 24.1367 16.8799C24.1367 17.5956 23.7016 18.2132 23.1262 18.4939C23.1543 18.6623 23.1683 18.8307 23.1683 19.0132C23.1683 21.7079 20.0385 23.8834 16.1648 23.8834C12.2911 23.8834 9.16129 21.7079 9.16129 19.0132C9.16129 18.8307 9.17532 18.6483 9.20339 18.4799C8.58585 18.1992 8.16479 17.5956 8.16479 16.8799C8.16479 15.9114 8.95076 15.1255 9.91918 15.1255C10.3823 15.1255 10.8174 15.322 11.1262 15.6167C12.3332 14.7325 14.0034 14.1851 15.8701 14.129L16.7543 9.94653C16.7823 9.86232 16.8244 9.79214 16.8946 9.75003C16.9648 9.70793 17.049 9.69389 17.1332 9.70793L20.0385 10.3255C20.235 9.90442 20.656 9.62372 21.1473 9.62372C21.835 9.62372 22.3964 10.1851 22.3964 10.8728C22.3964 11.5606 21.835 12.122 21.1473 12.122C20.4736 12.122 19.9262 11.5886 19.8981 10.929L17.3016 10.3816L16.5016 14.129C18.3262 14.1992 19.9823 14.7606 21.1753 15.6167C21.4841 15.3079 21.9051 15.1255 22.3823 15.1255ZM13.3858 16.8799C12.6981 16.8799 12.1367 17.4413 12.1367 18.129C12.1367 18.8167 12.6981 19.3781 13.3858 19.3781C14.0736 19.3781 14.635 18.8167 14.635 18.129C14.635 17.4413 14.0736 16.8799 13.3858 16.8799ZM16.1508 22.3395C16.628 22.3395 18.256 22.2834 19.1122 21.4272C19.2385 21.3009 19.2385 21.1044 19.1402 20.9641C19.0139 20.8378 18.8034 20.8378 18.6771 20.9641C18.1297 21.4974 16.9929 21.6939 16.1648 21.6939C15.3367 21.6939 14.1858 21.4974 13.6525 20.9641C13.5262 20.8378 13.3157 20.8378 13.1894 20.9641C13.063 21.0904 13.063 21.3009 13.1894 21.4272C14.0315 22.2693 15.6736 22.3395 16.1508 22.3395ZM17.6385 18.129C17.6385 18.8167 18.1999 19.3781 18.8876 19.3781C19.5753 19.3781 20.1367 18.8167 20.1367 18.129C20.1367 17.4413 19.5753 16.8799 18.8876 16.8799C18.1999 16.8799 17.6385 17.4413 17.6385 18.129Z" fill="#26C6DA"/>
</svg>
