<svg width="33" height="33" viewBox="0 0 33 33" fill="none" xmlns="http://www.w3.org/2000/svg">
<g clip-path="url(#clip0_60_7281)">
<path d="M27.0872 4.87988H6.63564C5.65596 4.87988 4.86377 5.65332 4.86377 6.60957V27.1455C4.86377 28.1018 5.65596 28.8799 6.63564 28.8799H27.0872C28.0669 28.8799 28.8638 28.1018 28.8638 27.1502V6.60957C28.8638 5.65332 28.0669 4.87988 27.0872 4.87988ZM11.9841 25.3314H8.42158V13.8752H11.9841V25.3314ZM10.2028 12.3143C9.05908 12.3143 8.13564 11.3908 8.13564 10.2518C8.13564 9.1127 9.05908 8.18926 10.2028 8.18926C11.3419 8.18926 12.2653 9.1127 12.2653 10.2518C12.2653 11.3861 11.3419 12.3143 10.2028 12.3143ZM25.3153 25.3314H21.7575V19.7627C21.7575 18.4361 21.7341 16.7252 19.906 16.7252C18.0544 16.7252 17.7731 18.1736 17.7731 19.6689V25.3314H14.22V13.8752H17.6325V15.4408H17.6794C18.1528 14.5408 19.3153 13.5893 21.045 13.5893C24.6497 13.5893 25.3153 15.9611 25.3153 19.0455V25.3314Z" fill="#26C6DA"/>
</g>
<defs>
<clipPath id="clip0_60_7281">
<rect width="24" height="24" fill="white" transform="translate(4.86377 4.87988)"/>
</clipPath>
</defs>
</svg>
