<svg width="28" height="29" viewBox="0 0 28 29" fill="none" xmlns="http://www.w3.org/2000/svg">
<g clip-path="url(#clip0_204_41)">
<path d="M22.9455 4.37988H5.05039C4.19316 4.37988 3.5 5.05664 3.5 5.89336V23.8623C3.5 24.699 4.19316 25.3799 5.05039 25.3799H22.9455C23.8027 25.3799 24.5 24.699 24.5 23.8664V5.89336C24.5 5.05664 23.8027 4.37988 22.9455 4.37988ZM9.73027 22.275H6.61309V12.2508H9.73027V22.275ZM8.17168 10.885C7.1709 10.885 6.36289 10.077 6.36289 9.08027C6.36289 8.08359 7.1709 7.27559 8.17168 7.27559C9.16836 7.27559 9.97637 8.08359 9.97637 9.08027C9.97637 10.0729 9.16836 10.885 8.17168 10.885ZM21.3951 22.275H18.282V17.4023C18.282 16.2416 18.2615 14.7445 16.6619 14.7445C15.0418 14.7445 14.7957 16.0119 14.7957 17.3203V22.275H11.6867V12.2508H14.6727V13.6207H14.7137C15.1279 12.8332 16.1451 12.0006 17.6586 12.0006C20.8127 12.0006 21.3951 14.076 21.3951 16.7748V22.275V22.275Z" fill="#3B3F49"/>
</g>
<defs>
<clipPath id="clip0_204_41">
<rect width="21" height="21" fill="white" transform="translate(3.5 4.37988)"/>
</clipPath>
</defs>
</svg>
