<svg width="184" height="83" viewBox="0 0 184 83" fill="none" xmlns="http://www.w3.org/2000/svg">
<rect y="0.879883" width="82" height="82" rx="41" fill="white"/>
<path d="M97.92 35.8799H102.16L106.04 49.8799H103.32L102.48 46.7599H97.6L96.76 49.8799H94.04L97.92 35.8799ZM98.22 44.3599H101.86L100.16 38.0799H99.92L98.22 44.3599ZM107.23 35.8799H109.87V49.8799H107.23V35.8799ZM111.631 44.4799V41.2799C111.631 39.5465 112.151 38.1665 113.191 37.1399C114.245 36.1132 115.658 35.5999 117.431 35.5999C119.191 35.5999 120.558 36.0599 121.531 36.9799C122.505 37.8865 122.991 39.1599 122.991 40.7999V40.9599H120.351V40.7599C120.351 39.9065 120.098 39.2265 119.591 38.7199C119.085 38.2132 118.365 37.9599 117.431 37.9599C116.471 37.9599 115.705 38.2665 115.131 38.8799C114.558 39.4932 114.271 40.2532 114.271 41.1599V44.5999C114.271 45.5865 114.545 46.3665 115.091 46.9399C115.638 47.5132 116.418 47.7999 117.431 47.7999C119.378 47.7999 120.351 46.8999 120.351 45.0999V44.9599H116.951V42.6399H122.991V44.9599C122.991 46.6399 122.511 47.9265 121.551 48.8199C120.605 49.7132 119.231 50.1599 117.431 50.1599C115.671 50.1599 114.265 49.6665 113.211 48.6799C112.158 47.6932 111.631 46.2932 111.631 44.4799ZM129.14 35.8799H140.26V38.2799H136.02V49.8799H133.38V38.2799H129.14V35.8799ZM140.434 48.6999C139.447 47.7132 138.954 46.4532 138.954 44.9199C138.954 43.3865 139.447 42.1332 140.434 41.1599C141.434 40.1732 142.674 39.6799 144.154 39.6799C145.634 39.6799 146.867 40.1732 147.854 41.1599C148.854 42.1332 149.354 43.3865 149.354 44.9199C149.354 46.4532 148.854 47.7132 147.854 48.6999C146.867 49.6732 145.634 50.1599 144.154 50.1599C142.674 50.1599 141.434 49.6732 140.434 48.6999ZM142.214 42.7599C141.72 43.3065 141.474 44.0265 141.474 44.9199C141.474 45.8132 141.72 46.5399 142.214 47.0999C142.707 47.6465 143.354 47.9199 144.154 47.9199C144.954 47.9199 145.6 47.6465 146.094 47.0999C146.587 46.5399 146.834 45.8132 146.834 44.9199C146.834 44.0265 146.587 43.3065 146.094 42.7599C145.6 42.1999 144.954 41.9199 144.154 41.9199C143.354 41.9199 142.707 42.1999 142.214 42.7599ZM161.319 39.9599L156.819 43.6999L161.159 49.8799H158.239L155.039 45.1999L153.519 46.4599V49.8799H150.999V35.8799H153.519V43.3599H153.759L157.799 39.9599H161.319ZM161.278 44.8399C161.278 43.3332 161.744 42.0999 162.678 41.1399C163.611 40.1665 164.804 39.6799 166.258 39.6799C167.698 39.6799 168.858 40.1399 169.738 41.0599C170.631 41.9799 171.078 43.1865 171.078 44.6799V45.6599H163.858C163.911 46.3399 164.158 46.8999 164.598 47.3399C165.051 47.7799 165.631 47.9999 166.338 47.9999C167.511 47.9999 168.338 47.5065 168.818 46.5199L170.878 47.7199C170.664 48.0399 170.451 48.3199 170.238 48.5599C170.024 48.7999 169.738 49.0532 169.378 49.3199C169.031 49.5865 168.598 49.7932 168.078 49.9399C167.571 50.0865 167.004 50.1599 166.378 50.1599C164.898 50.1599 163.678 49.6599 162.718 48.6599C161.758 47.6599 161.278 46.3865 161.278 44.8399ZM163.878 43.8999H168.518C168.424 43.2599 168.178 42.7599 167.778 42.3999C167.391 42.0265 166.878 41.8399 166.238 41.8399C164.891 41.8399 164.104 42.5265 163.878 43.8999ZM172.64 39.9599H175.12V41.5599H175.4C175.906 40.3865 176.953 39.7999 178.54 39.7999C179.66 39.7999 180.58 40.1799 181.3 40.9399C182.033 41.6865 182.4 42.6932 182.4 43.9599V49.8799H179.88V44.1999C179.88 43.5065 179.686 42.9665 179.3 42.5799C178.913 42.1932 178.36 41.9999 177.64 41.9999C176.84 41.9999 176.226 42.2399 175.8 42.7199C175.373 43.1999 175.16 43.8799 175.16 44.7599V49.8799H172.64V39.9599Z" fill="#26C6DA"/>
</svg>
