<?xml version="1.0" encoding="UTF-8"?>
<svg id="Layer_2" data-name="Layer 2" xmlns="http://www.w3.org/2000/svg" viewBox="0 0 320.8 104.54">
  <defs>
    <style>
      .cls-1 {
        fill: #fff;
      }
    </style>
  </defs>
  <g id="Layer_1-2" data-name="Layer 1">
    <g>
      <g>
        <g>
          <path class="cls-1" d="M53.92,67.25v17.41c0,.46-.18,.91-.51,1.23l-18.14,18.14c-.68,.68-1.78,.68-2.47,0l-17.41-17.41c-.68-.68-.68-1.78,0-2.47l18.14-18.14c.33-.33,.77-.51,1.23-.51h17.41c.96,0,1.74,.78,1.74,1.74Z"/>
          <path class="cls-1" d="M97.42,86.61l-17.41,17.41c-.68,.68-1.78,.68-2.47,0l-18.14-18.14c-.33-.33-.51-.77-.51-1.23v-17.41c0-.96,.78-1.74,1.74-1.74h17.41c.46,0,.91,.18,1.23,.51l18.14,18.14c.68,.68,.68,1.78,0,2.47Z"/>
          <path class="cls-1" d="M43.11,49.79l-8.71,15.08c-.23,.4-.61,.69-1.06,.81l-24.77,6.64c-.93,.25-1.89-.3-2.13-1.23L.06,47.31c-.25-.93,.3-1.89,1.23-2.13l24.78-6.64c.45-.12,.92-.06,1.32,.17l15.08,8.71c.83,.48,1.12,1.55,.64,2.38Z"/>
          <path class="cls-1" d="M56.41,26.76h0s-9.07,15.71-9.07,15.71c-.48,.83-1.55,1.12-2.38,.64l-15.08-8.71c-.4-.23-.69-.61-.81-1.06l-6.64-24.78c-.25-.93,.3-1.89,1.23-2.13L47.45,.06c.93-.25,1.89,.3,2.13,1.23l6.83,25.47Z"/>
          <path class="cls-1" d="M112.75,47.31l-6.37,23.79c-.25,.93-1.2,1.48-2.13,1.23l-24.78-6.64c-.45-.12-.83-.41-1.06-.81l-8.71-15.08c-.48-.83-.2-1.9,.64-2.38l15.08-8.71c.4-.23,.88-.29,1.32-.17l24.77,6.64c.93,.25,1.48,1.2,1.23,2.13Z"/>
          <path class="cls-1" d="M90.39,8.57l-6.64,24.78c-.12,.45-.41,.83-.81,1.06l-15.08,8.71c-.83,.48-1.9,.2-2.38-.64l-9.07-15.71h0S63.23,1.29,63.23,1.29c.25-.93,1.2-1.48,2.13-1.23l23.79,6.37c.93,.25,1.48,1.2,1.23,2.13Z"/>
        </g>
        <path class="cls-1" d="M44.48,49.16l8.93,15.47c.31,.54,.89,.87,1.51,.87h2.96c.62,0,1.2-.33,1.51-.87l8.93-15.47c.31-.54,.31-1.2,0-1.74l-1.48-2.56c-.31-.54-.89-.87-1.51-.87h-17.87c-.62,0-1.2,.33-1.51,.87l-1.48,2.56c-.31,.54-.31,1.2,0,1.74Z"/>
      </g>
      <g>
        <path class="cls-1" d="M141.85,31.08l7.85-21.79h4.95l8.09,21.79h-3.01l-7.31-19.88,1.43,.72h-3.52l1.52-.72-7.07,19.88h-2.92Zm4.69-6.51l.98-2.63h9.4l.99,2.63h-11.37Z"/>
        <path class="cls-1" d="M166.47,31.08V15.15h2.27v6.57h-.12c0-2.33,.51-4.03,1.54-5.12,1.02-1.08,2.56-1.63,4.61-1.63h.54v2.57h-1.01c-1.59,0-2.82,.42-3.67,1.27-.86,.85-1.28,2.06-1.28,3.66v8.63h-2.87Z"/>
        <path class="cls-1" d="M176.83,17.3v-2.15h10.98v2.15h-10.98Zm8.54,13.97c-1.19,0-2.22-.17-3.09-.51-.87-.34-1.53-.92-2-1.75-.47-.83-.7-1.94-.7-3.36V10.31h2.75v15.7c0,.86,.23,1.52,.7,1.98,.47,.47,1.13,.7,1.99,.7h2.8v2.57h-2.45Z"/>
        <path class="cls-1" d="M190.35,17.41v-2.27h5.31v2.27h-5.31Zm3.25-4.83c-.64,0-1.11-.17-1.42-.51-.31-.34-.46-.77-.46-1.28s.15-.94,.46-1.28c.31-.34,.78-.51,1.42-.51s1.11,.17,1.42,.51c.31,.34,.46,.77,.46,1.28s-.15,.95-.46,1.28c-.31,.34-.78,.51-1.42,.51Zm-.81,18.5V15.15h2.87v15.94h-2.87Z"/>
        <path class="cls-1" d="M199.57,17.3v-2.15h9.22v2.15h-9.22Zm2.21,13.79V14.16c0-1.77,.47-3.07,1.4-3.91,.93-.84,2.31-1.25,4.12-1.25h1.79v2.39h-2.27c-.74,0-1.3,.2-1.7,.61-.4,.41-.6,.97-.6,1.69V31.08h-2.75Zm8.63-13.67v-2.27h5.19v2.27h-5.19Zm3.13-4.83c-.64,0-1.11-.17-1.42-.51-.31-.34-.46-.77-.46-1.28s.15-.94,.46-1.28c.31-.34,.78-.51,1.42-.51s1.11,.17,1.42,.51c.31,.34,.46,.77,.46,1.28s-.15,.95-.46,1.28c-.31,.34-.78,.51-1.42,.51Zm-.81,18.5V15.15h2.87v15.94h-2.87Z"/>
        <path class="cls-1" d="M228.13,31.62c-1.37,0-2.56-.24-3.57-.72s-1.83-1.12-2.49-1.93c-.66-.81-1.15-1.7-1.48-2.67-.33-.97-.49-1.95-.49-2.92v-.54c0-1.01,.16-2.01,.49-2.98,.33-.97,.83-1.86,1.49-2.64,.67-.79,1.5-1.42,2.49-1.9,1-.48,2.16-.72,3.49-.72s2.53,.25,3.6,.75c1.06,.5,1.92,1.2,2.57,2.1,.65,.91,1.01,1.97,1.09,3.21h-2.75c-.14-.99-.6-1.83-1.37-2.49-.78-.67-1.82-1-3.13-1-1.13,0-2.08,.26-2.83,.78-.76,.52-1.32,1.22-1.7,2.12-.38,.9-.57,1.91-.57,3.04s.19,2.09,.57,3c.38,.91,.95,1.62,1.72,2.15,.77,.53,1.73,.79,2.88,.79,.9,0,1.67-.16,2.33-.48,.66-.32,1.18-.75,1.58-1.28,.4-.54,.64-1.14,.72-1.82h2.75c-.06,1.25-.42,2.34-1.09,3.25-.67,.92-1.54,1.63-2.63,2.13-1.08,.51-2.3,.76-3.66,.76Z"/>
        <path class="cls-1" d="M237.86,17.41v-2.27h5.31v2.27h-5.31Zm3.25-4.83c-.64,0-1.11-.17-1.42-.51-.31-.34-.46-.77-.46-1.28s.15-.94,.46-1.28c.31-.34,.78-.51,1.42-.51s1.11,.17,1.42,.51c.31,.34,.46,.77,.46,1.28s-.15,.95-.46,1.28c-.31,.34-.78,.51-1.42,.51Zm-.81,18.5V15.15h2.87v15.94h-2.87Z"/>
        <path class="cls-1" d="M253.29,31.5c-1.19,0-2.22-.2-3.09-.61-.87-.41-1.53-1-2-1.78-.47-.78-.7-1.71-.7-2.81s.25-2.08,.76-2.84c.51-.76,1.25-1.33,2.22-1.72,.97-.39,2.15-.58,3.52-.58h4.33v2.15h-4.45c-1.15,0-2.04,.28-2.66,.84-.62,.56-.92,1.27-.92,2.15s.31,1.58,.92,2.12c.62,.54,1.5,.81,2.66,.81,.68,0,1.32-.12,1.94-.37,.62-.25,1.13-.67,1.54-1.25,.41-.59,.63-1.4,.67-2.43l.78,1.13c-.1,1.13-.37,2.08-.82,2.85-.45,.77-1.06,1.35-1.85,1.75s-1.74,.6-2.85,.6Zm5.22-.42v-4.78h-.48v-5.52c0-1.09-.28-1.92-.85-2.48-.57-.56-1.4-.84-2.49-.84-.62,0-1.25,.01-1.91,.03-.66,.02-1.28,.04-1.88,.06-.6,.02-1.11,.05-1.55,.09v-2.51c.44-.04,.9-.07,1.39-.1,.49-.03,.99-.05,1.51-.06,.52,0,1.01-.01,1.49-.01,1.63,0,2.96,.19,4,.58s1.8,1.02,2.3,1.9c.5,.88,.75,2.06,.75,3.55v10.09h-2.27Z"/>
        <path class="cls-1" d="M264.15,11.57v-2.27h5.07v2.27h-5.07Zm2.21,19.52V9.3h2.87V31.08h-2.87Z"/>
        <path class="cls-1" d="M144.24,62.89v-21.79h2.92v21.79h-2.92Z"/>
        <path class="cls-1" d="M153.28,62.89v-15.94h2.27v6.83h-.36c0-1.57,.21-2.9,.64-3.98,.43-1.08,1.08-1.91,1.95-2.48,.88-.57,1.98-.85,3.31-.85h.12c2.01,0,3.5,.63,4.46,1.88,.96,1.25,1.45,3.06,1.45,5.43v9.1h-2.87v-9.7c0-1.23-.35-2.22-1.04-2.97-.7-.75-1.65-1.12-2.87-1.12s-2.27,.39-3.04,1.16c-.78,.78-1.16,1.81-1.16,3.1v9.52h-2.87Z"/>
        <path class="cls-1" d="M170.2,49.11v-2.15h10.98v2.15h-10.98Zm8.54,13.97c-1.19,0-2.22-.17-3.09-.51-.87-.34-1.53-.92-2-1.75-.47-.83-.7-1.94-.7-3.36v-15.34h2.75v15.7c0,.86,.23,1.52,.7,1.98,.47,.47,1.13,.7,1.99,.7h2.8v2.57h-2.45Z"/>
        <path class="cls-1" d="M192.05,63.43c-1.39,0-2.6-.24-3.61-.72s-1.84-1.11-2.48-1.9c-.64-.79-1.11-1.67-1.42-2.64-.31-.97-.46-1.97-.46-2.98v-.54c0-1.03,.15-2.04,.46-3.01,.31-.97,.78-1.85,1.42-2.64,.64-.79,1.45-1.41,2.43-1.88,.99-.47,2.14-.7,3.48-.7,1.73,0,3.16,.37,4.28,1.12s1.96,1.71,2.51,2.88c.55,1.17,.82,2.43,.82,3.76v1.28h-14.15v-2.15h12.06l-.66,1.16c0-1.13-.18-2.11-.54-2.94-.36-.83-.9-1.47-1.61-1.93-.72-.46-1.62-.69-2.72-.69s-2.07,.26-2.82,.78c-.75,.52-1.3,1.22-1.67,2.12-.37,.9-.55,1.93-.55,3.1s.18,2.15,.55,3.06c.37,.91,.94,1.62,1.72,2.15,.78,.53,1.76,.79,2.96,.79,1.25,0,2.27-.28,3.06-.84,.79-.56,1.26-1.2,1.42-1.94h2.69c-.22,1.09-.66,2.04-1.31,2.84-.66,.8-1.48,1.4-2.48,1.82-1,.42-2.12,.63-3.37,.63Z"/>
        <path class="cls-1" d="M201.66,43.38v-2.27h5.07v2.27h-5.07Zm2.21,19.52v-21.79h2.87v21.79h-2.87Z"/>
        <path class="cls-1" d="M210.34,43.38v-2.27h5.07v2.27h-5.07Zm2.21,19.52v-21.79h2.87v21.79h-2.87Z"/>
        <path class="cls-1" d="M219.38,49.23v-2.27h5.31v2.27h-5.31Zm3.25-4.83c-.64,0-1.11-.17-1.42-.51-.31-.34-.46-.77-.46-1.28s.15-.94,.46-1.28c.31-.34,.78-.51,1.42-.51s1.11,.17,1.42,.51c.31,.34,.46,.77,.46,1.28s-.15,.95-.46,1.28c-.31,.34-.78,.51-1.42,.51Zm-.81,18.5v-15.94h2.87v15.94h-2.87Z"/>
        <path class="cls-1" d="M236.43,69.1c-.74,0-1.48-.03-2.22-.09s-1.46-.14-2.13-.24v-2.42c.72,.1,1.47,.18,2.25,.25,.79,.07,1.53,.1,2.22,.1,1.45,0,2.61-.19,3.48-.58,.87-.39,1.49-1,1.88-1.82,.39-.83,.58-1.88,.58-3.18v-3.04l.96-2.27c-.06,1.61-.4,2.95-1.01,4.01-.62,1.06-1.42,1.86-2.4,2.39-.99,.53-2.07,.79-3.27,.79-1.11,0-2.13-.21-3.06-.64-.93-.43-1.72-1.02-2.39-1.78-.67-.76-1.18-1.63-1.55-2.61-.37-.98-.55-2.02-.55-3.12v-.54c0-1.11,.19-2.15,.57-3.12,.38-.96,.91-1.81,1.58-2.52,.68-.72,1.49-1.27,2.43-1.67,.95-.4,1.99-.6,3.12-.6,1.33,0,2.51,.28,3.52,.85,1.01,.57,1.82,1.39,2.4,2.48,.59,1.08,.91,2.41,.97,3.98l-.84,.03v-6.8h2.27v14.06c0,1.91-.29,3.46-.88,4.64-.59,1.18-1.52,2.05-2.81,2.61-1.28,.56-2.99,.84-5.12,.84Zm.87-8.71c.96,0,1.83-.21,2.61-.63,.79-.42,1.41-1.02,1.88-1.81,.47-.79,.7-1.73,.7-2.82v-1.37c0-1.07-.24-1.98-.73-2.72-.49-.74-1.12-1.29-1.89-1.67-.78-.38-1.62-.57-2.54-.57-1.04,0-1.95,.24-2.75,.72-.8,.48-1.41,1.15-1.85,2.01-.44,.87-.66,1.89-.66,3.06s.22,2.2,.67,3.07c.45,.88,1.06,1.55,1.85,2.01,.79,.47,1.69,.7,2.7,.7Z"/>
        <path class="cls-1" d="M257.47,63.43c-1.39,0-2.6-.24-3.61-.72s-1.84-1.11-2.48-1.9c-.64-.79-1.11-1.67-1.42-2.64-.31-.97-.46-1.97-.46-2.98v-.54c0-1.03,.15-2.04,.46-3.01,.31-.97,.78-1.85,1.42-2.64,.64-.79,1.45-1.41,2.43-1.88,.99-.47,2.14-.7,3.48-.7,1.73,0,3.16,.37,4.28,1.12s1.96,1.71,2.51,2.88c.55,1.17,.82,2.43,.82,3.76v1.28h-14.15v-2.15h12.06l-.66,1.16c0-1.13-.18-2.11-.54-2.94-.36-.83-.9-1.47-1.61-1.93-.72-.46-1.62-.69-2.72-.69s-2.07,.26-2.82,.78c-.75,.52-1.3,1.22-1.67,2.12-.37,.9-.55,1.93-.55,3.1s.18,2.15,.55,3.06c.37,.91,.94,1.62,1.72,2.15,.78,.53,1.76,.79,2.96,.79,1.25,0,2.27-.28,3.06-.84,.79-.56,1.26-1.2,1.42-1.94h2.69c-.22,1.09-.66,2.04-1.31,2.84-.66,.8-1.48,1.4-2.48,1.82-1,.42-2.12,.63-3.37,.63Z"/>
        <path class="cls-1" d="M269.11,62.89v-15.94h2.27v6.83h-.36c0-1.57,.21-2.9,.64-3.98,.43-1.08,1.08-1.91,1.95-2.48,.88-.57,1.98-.85,3.31-.85h.12c2.01,0,3.5,.63,4.46,1.88,.96,1.25,1.45,3.06,1.45,5.43v9.1h-2.87v-9.7c0-1.23-.35-2.22-1.04-2.97-.7-.75-1.65-1.12-2.87-1.12s-2.27,.39-3.04,1.16c-.78,.78-1.16,1.81-1.16,3.1v9.52h-2.87Z"/>
        <path class="cls-1" d="M295.19,63.43c-1.37,0-2.56-.24-3.57-.72s-1.83-1.12-2.49-1.93c-.66-.81-1.15-1.7-1.48-2.67-.33-.97-.49-1.95-.49-2.92v-.54c0-1.01,.16-2.01,.49-2.98,.33-.97,.83-1.86,1.49-2.64,.67-.79,1.5-1.42,2.49-1.9,1-.48,2.16-.72,3.49-.72s2.53,.25,3.6,.75c1.06,.5,1.92,1.2,2.57,2.1,.65,.91,1.01,1.97,1.09,3.21h-2.75c-.14-.99-.6-1.83-1.37-2.49-.78-.67-1.82-1-3.13-1-1.13,0-2.08,.26-2.83,.78-.76,.52-1.32,1.22-1.7,2.12-.38,.9-.57,1.91-.57,3.04s.19,2.09,.57,3c.38,.91,.95,1.62,1.72,2.15,.77,.53,1.73,.79,2.88,.79,.9,0,1.67-.16,2.33-.48,.66-.32,1.18-.75,1.58-1.28,.4-.54,.64-1.14,.72-1.82h2.75c-.06,1.25-.42,2.34-1.09,3.25-.67,.92-1.54,1.63-2.63,2.13-1.08,.51-2.3,.76-3.66,.76Z"/>
        <path class="cls-1" d="M313.37,63.43c-1.39,0-2.6-.24-3.61-.72s-1.84-1.11-2.48-1.9c-.64-.79-1.11-1.67-1.42-2.64-.31-.97-.46-1.97-.46-2.98v-.54c0-1.03,.15-2.04,.46-3.01,.31-.97,.78-1.85,1.42-2.64,.64-.79,1.45-1.41,2.43-1.88,.99-.47,2.14-.7,3.48-.7,1.73,0,3.16,.37,4.28,1.12s1.96,1.71,2.51,2.88c.55,1.17,.82,2.43,.82,3.76v1.28h-14.15v-2.15h12.06l-.66,1.16c0-1.13-.18-2.11-.54-2.94-.36-.83-.9-1.47-1.61-1.93-.72-.46-1.62-.69-2.72-.69s-2.07,.26-2.82,.78c-.75,.52-1.3,1.22-1.67,2.12-.37,.9-.55,1.93-.55,3.1s.18,2.15,.55,3.06c.37,.91,.94,1.62,1.72,2.15,.78,.53,1.76,.79,2.96,.79,1.25,0,2.27-.28,3.06-.84,.79-.56,1.26-1.2,1.42-1.94h2.69c-.22,1.09-.66,2.04-1.31,2.84-.66,.8-1.48,1.4-2.48,1.82-1,.42-2.12,.63-3.37,.63Z"/>
        <path class="cls-1" d="M153.91,95.24c-1.69,0-3.22-.28-4.6-.84s-2.55-1.34-3.54-2.36c-.99-1.01-1.75-2.21-2.28-3.6-.54-1.38-.81-2.89-.81-4.52v-.66c0-1.39,.24-2.74,.73-4.04,.49-1.3,1.19-2.48,2.12-3.52s2.05-1.87,3.39-2.48c1.33-.61,2.83-.91,4.51-.91,1.81,0,3.42,.34,4.83,1.03,1.41,.69,2.55,1.64,3.4,2.87,.86,1.22,1.35,2.64,1.49,4.25h-2.98c-.14-1.21-.54-2.22-1.19-3.03-.66-.81-1.47-1.41-2.43-1.82-.96-.41-2-.61-3.12-.61s-2.18,.2-3.13,.61c-.96,.41-1.78,.99-2.46,1.75-.69,.76-1.22,1.66-1.6,2.72-.38,1.05-.57,2.24-.57,3.55,0,1.49,.2,2.8,.61,3.92,.41,1.12,.98,2.06,1.72,2.81,.74,.75,1.61,1.31,2.61,1.69,1,.38,2.1,.57,3.3,.57,1.69,0,3.18-.34,4.46-1.03s2.25-1.58,2.91-2.67l-1.07,3.55v-6.48h2.75v5.19c-.98,1.27-2.23,2.27-3.76,2.98-1.53,.72-3.29,1.07-5.28,1.07Zm-.78-8.66v-2.45h11.67v2.45h-11.67Z"/>
        <path class="cls-1" d="M173.13,95.12c-1.19,0-2.22-.2-3.09-.61-.87-.41-1.53-1-2-1.78-.47-.78-.7-1.71-.7-2.81s.25-2.08,.76-2.84c.51-.76,1.25-1.33,2.22-1.72,.97-.39,2.15-.58,3.52-.58h4.33v2.15h-4.45c-1.15,0-2.04,.28-2.66,.84-.62,.56-.92,1.27-.92,2.15s.31,1.58,.92,2.12c.62,.54,1.5,.81,2.66,.81,.68,0,1.32-.12,1.94-.37,.62-.25,1.13-.67,1.54-1.25,.41-.59,.63-1.4,.67-2.43l.78,1.13c-.1,1.13-.37,2.08-.82,2.85-.45,.77-1.06,1.35-1.85,1.75s-1.74,.6-2.85,.6Zm5.22-.42v-4.78h-.48v-5.52c0-1.09-.28-1.92-.85-2.48-.57-.56-1.4-.84-2.49-.84-.62,0-1.25,.01-1.91,.03-.66,.02-1.28,.04-1.88,.06-.6,.02-1.11,.05-1.55,.09v-2.51c.44-.04,.9-.07,1.39-.1,.49-.03,.99-.05,1.51-.06,.52,0,1.01-.01,1.49-.01,1.63,0,2.96,.19,4,.58s1.8,1.02,2.3,1.9c.5,.88,.75,2.06,.75,3.55v10.09h-2.27Z"/>
        <path class="cls-1" d="M186.02,94.71v-15.94h2.27v6.83h-.36c0-1.55,.2-2.87,.61-3.95,.41-1.08,1.02-1.91,1.84-2.49,.82-.58,1.85-.87,3.1-.87h.12c1.25,0,2.29,.29,3.12,.87,.83,.58,1.44,1.41,1.83,2.49,.4,1.08,.6,2.4,.6,3.95h-.84c0-1.55,.21-2.87,.63-3.95,.42-1.08,1.04-1.91,1.87-2.49,.83-.58,1.87-.87,3.12-.87h.12c1.25,0,2.3,.29,3.13,.87,.83,.58,1.46,1.41,1.87,2.49,.41,1.08,.61,2.4,.61,3.95v9.1h-2.87v-9.73c0-1.29-.32-2.29-.96-3-.64-.71-1.52-1.06-2.66-1.06s-2.12,.37-2.83,1.12-1.07,1.79-1.07,3.12v9.55h-2.87v-9.73c0-1.29-.32-2.29-.96-3-.64-.71-1.52-1.06-2.66-1.06s-2.12,.37-2.83,1.12c-.72,.75-1.07,1.79-1.07,3.12v9.55h-2.87Z"/>
        <path class="cls-1" d="M221.83,95.24c-1.39,0-2.6-.24-3.61-.72s-1.84-1.11-2.48-1.9c-.64-.79-1.11-1.67-1.42-2.64-.31-.97-.46-1.97-.46-2.98v-.54c0-1.03,.15-2.04,.46-3.01,.31-.97,.78-1.85,1.42-2.64,.64-.79,1.45-1.41,2.43-1.88,.99-.47,2.14-.7,3.48-.7,1.73,0,3.16,.37,4.28,1.12s1.96,1.71,2.51,2.88c.55,1.17,.82,2.43,.82,3.76v1.28h-14.15v-2.15h12.06l-.66,1.16c0-1.13-.18-2.11-.54-2.94-.36-.83-.9-1.47-1.61-1.93-.72-.46-1.62-.69-2.72-.69s-2.07,.26-2.82,.78c-.75,.52-1.3,1.22-1.67,2.12-.37,.9-.55,1.93-.55,3.1s.18,2.15,.55,3.06c.37,.91,.94,1.62,1.72,2.15,.78,.53,1.76,.79,2.96,.79,1.25,0,2.27-.28,3.06-.84,.79-.56,1.26-1.2,1.42-1.94h2.69c-.22,1.09-.66,2.04-1.31,2.84-.66,.8-1.48,1.4-2.48,1.82-1,.42-2.12,.63-3.37,.63Z"/>
      </g>
    </g>
  </g>
</svg>