<svg width="185" height="40" viewBox="0 0 185 40" fill="none" xmlns="http://www.w3.org/2000/svg">
<path fill-rule="evenodd" clip-rule="evenodd" d="M43.6065 39.1998C54.1588 39.1998 62.713 30.6039 62.713 19.9999C62.713 9.39596 54.1588 0.799805 43.6065 0.799805C33.0542 0.799805 24.5 9.39596 24.5 19.9999C24.5 30.6039 33.0542 39.1998 43.6065 39.1998ZM46.0678 13.1768L52.5002 9.41164L52.5 17.2395C52.5 19.2492 51.4371 21.1076 49.709 22.1191L43.8386 25.5552V31.3752L37.4063 27.61C35.6782 26.5984 34.6153 24.74 34.6153 22.7304L34.6152 14.9025L41.0476 18.6676C42.0299 19.2428 42.7973 20.0914 43.2766 21.0859L43.2767 18.0564C43.2767 16.0467 44.3396 14.1884 46.0678 13.1768Z" fill="#43434B"/>
<path d="M70.6846 28.6107V10.9053H74.0611L81.4188 22.1609C81.822 22.8354 82.0732 23.2991 82.1748 23.552V10.9053H85.3996V28.6107H82.0228L74.6659 17.2793C74.2626 16.6048 74.0107 16.141 73.91 15.8882V28.6107H70.6846ZM99.4844 28.6107H96.2596C95.8564 28.1049 95.6548 27.4388 95.6548 26.6126C94.7812 28.1807 93.3868 28.9648 91.4724 28.9648C90.2292 28.9648 89.2132 28.6107 88.4236 27.9025C87.6508 27.1774 87.2644 26.2247 87.2644 25.0443C87.2644 23.8471 87.6756 22.9113 88.4988 22.2368C89.3388 21.5454 90.414 21.0986 91.7244 20.8962L95.478 20.3145V19.8339C95.478 18.5692 94.714 17.9369 93.1852 17.9369C92.4796 17.9369 91.9252 18.0718 91.5228 18.3416C91.1364 18.6114 90.9428 18.9486 90.9428 19.3534C90.9428 19.4545 90.9604 19.5557 90.9932 19.6568L88.146 20.618C87.9948 20.2807 87.9188 19.9266 87.9188 19.5557C87.9188 18.5271 88.398 17.6334 89.3556 16.8746C90.3132 16.099 91.59 15.711 93.1852 15.711C94.9668 15.711 96.318 16.0905 97.242 16.8493C98.1828 17.6081 98.6532 18.7462 98.6532 20.2639V25.4996C98.6532 26.7643 98.93 27.8013 99.4844 28.6107ZM92.2284 26.3849C93.1852 26.3849 93.966 26.073 94.5708 25.449C95.1756 24.8082 95.478 23.9062 95.478 22.7426V22.515L92.4548 23.0209C91.0612 23.257 90.3636 23.8724 90.3636 24.8673C90.3636 25.3563 90.5316 25.7357 90.8676 26.0055C91.2036 26.2584 91.6572 26.3849 92.2284 26.3849ZM103.943 19.151C103.943 19.9266 104.925 20.5168 106.891 20.9215C108.352 21.225 109.411 21.6888 110.066 22.3126C110.737 22.9197 111.073 23.7459 111.073 24.7914C111.073 26.0055 110.628 27.0088 109.738 27.8013C108.848 28.577 107.647 28.9648 106.135 28.9648C104.69 28.9648 103.489 28.6107 102.532 27.9025C101.591 27.1943 100.886 26.2922 100.416 25.1961L102.96 23.5774C103.245 24.4036 103.657 25.0612 104.195 25.5502C104.749 26.0392 105.412 26.2838 106.185 26.2838C106.706 26.2838 107.16 26.1657 107.546 25.9296C107.949 25.6766 108.151 25.331 108.151 24.8926C108.151 24.4879 107.94 24.1675 107.52 23.9314C107.1 23.6785 106.42 23.4594 105.48 23.2738C102.573 22.7005 101.121 21.3936 101.121 19.3534C101.121 18.2236 101.574 17.3383 102.482 16.6975C103.388 16.0399 104.488 15.711 105.782 15.711C107.109 15.711 108.168 15.964 108.957 16.4698C109.764 16.9758 110.427 17.7766 110.948 18.8728L108.655 20.2386C108.084 18.7716 107.143 18.0381 105.833 18.0381C104.573 18.0381 103.943 18.409 103.943 19.151ZM122.187 23.6785L124.756 25.3478C123.547 27.7592 121.598 28.9648 118.911 28.9648C117.03 28.9648 115.459 28.3578 114.199 27.1437C112.956 25.9128 112.335 24.3109 112.335 22.338C112.335 20.3819 112.973 18.7884 114.25 17.5575C115.526 16.3266 117.08 15.711 118.911 15.711C120.288 15.711 121.472 16.0146 122.464 16.6216C123.472 17.2118 124.193 18.0465 124.63 19.1257L122.035 20.8457C121.38 19.4124 120.33 18.6957 118.886 18.6957C117.928 18.6957 117.131 19.033 116.492 19.7074C115.871 20.365 115.56 21.2418 115.56 22.338C115.56 23.4509 115.871 24.3361 116.492 24.9938C117.113 25.6514 117.912 25.9802 118.886 25.9802C119.692 25.9802 120.347 25.7947 120.851 25.4238C121.372 25.0359 121.817 24.4542 122.187 23.6785ZM138.358 23.0967H128.733C128.833 24.0579 129.194 24.8251 129.816 25.3985C130.438 25.9549 131.219 26.2331 132.16 26.2331C133.704 26.2331 134.856 25.4659 135.612 23.9314L137.98 25.2973C136.804 27.7422 134.847 28.9648 132.109 28.9648C130.328 28.9648 128.808 28.3494 127.548 27.1184C126.305 25.8706 125.684 24.277 125.684 22.338C125.684 20.3819 126.314 18.7884 127.574 17.5575C128.85 16.3266 130.412 15.711 132.26 15.711C134.04 15.711 135.502 16.3013 136.644 17.4816C137.786 18.6451 138.358 20.1458 138.358 21.9838V23.0967ZM132.16 18.1393C131.336 18.1393 130.614 18.3922 129.992 18.898C129.388 19.387 128.968 20.011 128.733 20.7698H135.436C135.284 19.9435 134.923 19.3027 134.352 18.8474C133.78 18.3753 133.049 18.1393 132.16 18.1393ZM152.171 20.0615V28.6107H148.996V21.3768C148.996 19.5894 148.148 18.6957 146.451 18.6957C145.611 18.6957 144.914 19.0245 144.36 19.6822C143.822 20.3398 143.553 21.1913 143.553 22.2368V28.6107H140.379V16.0652H143.553V18.0886C144.578 16.5036 145.989 15.711 147.787 15.711C149.113 15.711 150.172 16.1074 150.961 16.8998C151.768 17.6924 152.171 18.7462 152.171 20.0615ZM153.237 18.6451V16.0652H155.177V12.6758H158.352V16.0652H161.073V18.6451H158.352V24.3614C158.352 25.5418 158.881 26.132 159.94 26.132C160.309 26.132 160.662 26.0814 160.998 25.9802L161.3 28.6107C160.662 28.8468 159.956 28.9648 159.184 28.9648C156.513 28.9648 155.177 27.6327 155.177 24.9685V18.6451H153.237Z" fill="#43434B"/>
</svg>
