<svg width="185" height="40" viewBox="0 0 185 40" fill="none" xmlns="http://www.w3.org/2000/svg">
<path fill-rule="evenodd" clip-rule="evenodd" d="M28.9204 22.0613C31.0256 17.3453 33.1407 12.6333 35.2217 7.90726C35.4515 7.38538 35.7143 7.19366 36.2999 7.20036C38.9446 7.23208 41.5903 7.22398 44.2352 7.20574C44.7311 7.20236 45.0515 7.274 45.2753 7.79129C48.9382 16.2567 52.6245 24.7124 56.3016 33.1718C56.3426 33.2663 56.3308 33.3826 56.3555 33.585C54.7902 33.585 53.2546 33.5521 51.7214 33.5995C51.0047 33.6216 50.9603 33.096 50.7849 32.692C47.8907 26.024 44.9868 19.36 42.1533 12.6676C41.7825 11.792 41.345 11.482 40.4193 11.5625C39.4808 11.6443 38.602 11.3804 38.1089 12.6873C36.913 15.8568 35.4823 18.9419 34.1463 22.061C32.4044 22.0611 30.6624 22.0612 28.9204 22.0613Z" fill="#43434B"/>
<path fill-rule="evenodd" clip-rule="evenodd" d="M30.2465 26.6442C28.998 26.6444 27.822 26.6448 26.8168 26.6448C25.7919 28.9278 24.7662 31.2119 23.7002 33.5859C25.417 33.5859 26.9381 33.5616 28.4576 33.5996C28.9616 33.6122 29.2069 33.4436 29.388 33.018C30.2935 30.889 31.2185 28.7674 32.1371 26.6436C31.5031 26.6438 30.869 26.644 30.2465 26.6442Z" fill="#43434B"/>
<path fill-rule="evenodd" clip-rule="evenodd" d="M83.3047 14.8282C84.3207 12.5021 85.3407 10.1779 86.3439 7.8468C86.4551 7.58939 86.5815 7.49482 86.8639 7.49813C88.1399 7.51377 89.4159 7.50978 90.6911 7.50078C90.9303 7.49911 91.0847 7.53444 91.1927 7.78959C92.9599 11.9651 94.7375 16.1358 96.5111 20.3084C96.5311 20.355 96.5255 20.4123 96.5367 20.5122C95.7823 20.5122 95.0415 20.4959 94.3023 20.5193C93.9567 20.5302 93.9351 20.271 93.8503 20.0717C92.4543 16.7828 91.0543 13.4958 89.6871 10.1948C89.5087 9.76295 89.2975 9.60999 88.8511 9.64975C88.3983 9.69007 87.9743 9.55991 87.7367 10.2046C87.1599 11.7678 86.4703 13.2895 85.8255 14.828C84.9855 14.8281 84.1455 14.8282 83.3047 14.8282Z" fill="#43434B"/>
<path fill-rule="evenodd" clip-rule="evenodd" d="M122.819 14.8282C123.834 12.5021 124.854 10.1779 125.858 7.8468C125.968 7.58939 126.095 7.49482 126.378 7.49813C127.653 7.51377 128.929 7.50978 130.205 7.50078C130.444 7.49911 130.599 7.53444 130.707 7.78959C132.473 11.9651 134.251 16.1358 136.024 20.3084C136.044 20.355 136.039 20.4123 136.051 20.5122C135.296 20.5122 134.555 20.4959 133.816 20.5193C133.47 20.5302 133.448 20.271 133.364 20.0717C131.968 16.7828 130.568 13.4958 129.2 10.1948C129.022 9.76295 128.811 9.60999 128.364 9.64975C127.912 9.69007 127.488 9.55991 127.25 10.2046C126.673 11.7678 125.984 13.2895 125.339 14.828C124.499 14.8281 123.659 14.8282 122.819 14.8282Z" fill="#43434B"/>
<path fill-rule="evenodd" clip-rule="evenodd" d="M72.1228 14.495C72.8143 14.495 73.2931 14.4322 73.5591 14.3066C73.8246 14.181 73.9578 13.9507 73.9578 13.6159V9.99506C73.9578 9.6601 73.8246 9.43002 73.5591 9.30442C73.2931 9.17882 72.8143 9.11602 72.1228 9.11602H68.2407V14.495H72.1228ZM68.2407 20.4599H65.5815V7.37891H72.0965C73.2839 7.37891 74.2103 7.5185 74.8751 7.79756C75.5398 8.07682 76.0185 8.5337 76.3113 9.16834C76.6036 9.80354 76.7498 10.6788 76.7498 11.7951C76.7498 13.358 76.4214 14.474 75.7659 15.1438C75.11 15.8136 74.0198 16.1484 72.4952 16.1484H68.2407V20.4599Z" fill="#43434B"/>
<path fill-rule="evenodd" clip-rule="evenodd" d="M104.714 14.181H108.723C109.412 14.181 109.891 14.1182 110.156 13.9926C110.421 13.867 110.554 13.6369 110.554 13.3019V9.99506C110.554 9.6601 110.421 9.43002 110.156 9.30442C109.891 9.17882 109.412 9.11602 108.723 9.11602H104.714V14.181ZM111.244 20.4599L108.484 15.8344H104.714V20.4599H102.06V7.37891H108.696C109.881 7.37891 110.806 7.5185 111.47 7.79756C112.134 8.07682 112.612 8.5337 112.904 9.16834C113.196 9.80354 113.342 10.6787 113.342 11.7951C113.342 12.8697 113.169 13.71 112.824 14.317C112.479 14.924 111.917 15.3462 111.138 15.5832L114.138 20.4599H111.244Z" fill="#43434B"/>
<path fill-rule="evenodd" clip-rule="evenodd" d="M145.266 20.4599H142.606V7.37891H151.65L151.358 9.1161H145.266V13.3647H150.586V15.0182H145.266V20.4599Z" fill="#43434B"/>
<path fill-rule="evenodd" clip-rule="evenodd" d="M158.691 20.4599H161.301V7.37891H158.691V20.4599Z" fill="#43434B"/>
<path fill-rule="evenodd" clip-rule="evenodd" d="M82.2573 17.0114C81.7629 18.1431 81.2685 19.2754 80.7549 20.4523C81.5821 20.4523 82.3157 20.4403 83.0477 20.4591C83.2909 20.4653 83.4093 20.3818 83.4965 20.1708C83.9325 19.1153 84.3789 18.0636 84.8213 17.0107C84.5157 17.0109 84.2101 17.011 83.9101 17.0111C83.3085 17.0112 82.7413 17.0114 82.2573 17.0114Z" fill="#43434B"/>
<path fill-rule="evenodd" clip-rule="evenodd" d="M123.498 17.0111C122.892 17.0112 122.322 17.0114 121.834 17.0114C121.34 18.1431 120.844 19.2754 120.33 20.4523C121.156 20.4523 121.889 20.4403 122.62 20.4591C122.863 20.4653 122.981 20.382 123.068 20.1717C123.506 19.1159 123.953 18.0639 124.396 17.0107C124.095 17.0109 123.794 17.011 123.498 17.0111Z" fill="#43434B"/>
<path fill-rule="evenodd" clip-rule="evenodd" d="M72.8643 31.6363V29.6785C72.8643 29.0547 73.0063 28.601 73.2901 28.3177C73.574 28.0343 74.0255 27.8926 74.6448 27.8926H75.6855C76.2131 27.8926 76.6059 28.0028 76.864 28.2231C77.1219 28.4435 77.2652 28.7971 77.294 29.2836C77.3055 29.4325 77.2309 29.5068 77.0704 29.5068C76.9328 29.5068 76.8582 29.4325 76.8467 29.2836C76.8238 28.9345 76.7263 28.6899 76.5543 28.5495C76.3823 28.4092 76.0927 28.3391 75.6855 28.3391H74.6448C74.3122 28.3391 74.0499 28.3821 73.8578 28.4679C73.6656 28.5538 73.5267 28.6926 73.4407 28.8843C73.3546 29.0762 73.3116 29.3409 73.3116 29.6785V31.6363C73.3116 31.9742 73.3546 32.2388 73.4407 32.4305C73.5267 32.6223 73.6656 32.7611 73.8578 32.847C74.0499 32.9328 74.315 32.9759 74.6535 32.9759H75.6855C76.0927 32.9759 76.3823 32.9071 76.5543 32.7698C76.7263 32.6323 76.8238 32.3863 76.8467 32.0314C76.8582 31.8824 76.9328 31.808 77.0704 31.808C77.2309 31.808 77.3055 31.8853 77.294 32.0399C77.2652 32.5265 77.1219 32.8784 76.864 33.096C76.6059 33.3136 76.2131 33.4223 75.6855 33.4223H74.6535C74.0341 33.4223 73.5811 33.2793 73.2943 32.9929C73.0076 32.7067 72.8643 32.2545 72.8643 31.6363Z" fill="#43434B"/>
<path fill-rule="evenodd" clip-rule="evenodd" d="M87.9506 31.4817H90.373L89.1618 28.5967L87.9506 31.4817ZM91.5594 33.2162C91.5594 33.2907 91.5106 33.3507 91.4146 33.3964C91.3802 33.4136 91.3434 33.4223 91.3034 33.4223C91.2234 33.4223 91.1666 33.3764 91.133 33.2849L90.561 31.9282H87.7714L87.1994 33.2849C87.1594 33.3764 87.097 33.4223 87.0114 33.4223C86.9834 33.4223 86.9466 33.4136 86.901 33.3964C86.8098 33.3621 86.7642 33.2992 86.7642 33.2075C86.7642 33.1619 86.7698 33.1275 86.781 33.1046L88.897 28.0643C88.9426 27.9498 89.0282 27.8926 89.153 27.8926H89.1706C89.2842 27.8926 89.3666 27.9498 89.4178 28.0643L91.5338 33.1046C91.5506 33.1446 91.5594 33.1819 91.5594 33.2162Z" fill="#43434B"/>
<path fill-rule="evenodd" clip-rule="evenodd" d="M104.408 29.378C104.408 29.0175 104.326 28.7542 104.164 28.5881C104.002 28.4221 103.738 28.3391 103.374 28.3391H101.594V30.6746H103.374C103.738 30.6746 104.002 30.5931 104.164 30.4299C104.326 30.2667 104.408 30.002 104.408 29.6356V29.378ZM104.476 28.2703C104.727 28.5223 104.853 28.8916 104.853 29.378V29.6356C104.853 30.1222 104.729 30.4915 104.481 30.7432C104.233 30.9953 103.863 31.121 103.374 31.121H101.594V33.199C101.594 33.3479 101.521 33.4223 101.372 33.4223C101.224 33.4223 101.15 33.3479 101.15 33.199V28.1159C101.15 27.967 101.224 27.8926 101.372 27.8926H103.374C103.858 27.8926 104.226 28.0185 104.476 28.2703Z" fill="#43434B"/>
<path fill-rule="evenodd" clip-rule="evenodd" d="M114.561 33.3621C114.523 33.3221 114.503 33.2676 114.503 33.199V28.1159C114.503 28.0471 114.523 27.9928 114.561 27.9527C114.599 27.9127 114.651 27.8926 114.716 27.8926C114.782 27.8926 114.833 27.9127 114.871 27.9527C114.91 27.9928 114.928 28.0471 114.928 28.1159V33.199C114.928 33.2676 114.91 33.3221 114.871 33.3621C114.833 33.4023 114.782 33.4223 114.716 33.4223C114.651 33.4223 114.599 33.4023 114.561 33.3621Z" fill="#43434B"/>
<path fill-rule="evenodd" clip-rule="evenodd" d="M126.756 33.3579C126.713 33.3151 126.692 33.2623 126.692 33.1994V28.3383H124.862C124.799 28.3383 124.746 28.317 124.703 28.2741C124.66 28.2311 124.639 28.1784 124.639 28.1155C124.639 28.0469 124.66 27.9927 124.703 27.9525C124.746 27.9127 124.799 27.8926 124.862 27.8926H128.968C129.037 27.8926 129.091 27.9127 129.131 27.9525C129.171 27.9927 129.191 28.0469 129.191 28.1155C129.191 28.1784 129.171 28.2311 129.131 28.2741C129.091 28.317 129.037 28.3383 128.968 28.3383H127.138V33.1994C127.138 33.2623 127.118 33.3151 127.078 33.3579C127.038 33.4009 126.984 33.4223 126.915 33.4223C126.852 33.4223 126.799 33.4009 126.756 33.3579Z" fill="#43434B"/>
<path fill-rule="evenodd" clip-rule="evenodd" d="M138.147 31.4817H140.57L139.359 28.5967L138.147 31.4817ZM141.755 33.2162C141.755 33.2907 141.707 33.3507 141.611 33.3964C141.576 33.4136 141.539 33.4223 141.499 33.4223C141.42 33.4223 141.363 33.3764 141.329 33.2849L140.757 31.9282H137.967L137.395 33.2849C137.356 33.3764 137.293 33.4223 137.208 33.4223C137.179 33.4223 137.143 33.4136 137.097 33.3964C137.006 33.3621 136.961 33.2992 136.961 33.2075C136.961 33.1619 136.967 33.1275 136.978 33.1046L139.094 28.0643C139.139 27.9498 139.224 27.8926 139.35 27.8926H139.367C139.48 27.8926 139.563 27.9498 139.614 28.0643L141.73 33.1046C141.747 33.1446 141.755 33.1819 141.755 33.2162Z" fill="#43434B"/>
<path fill-rule="evenodd" clip-rule="evenodd" d="M151.407 33.199V28.1159C151.407 27.967 151.48 27.8926 151.629 27.8926C151.777 27.8926 151.852 27.967 151.852 28.1159V32.9759H154.462C154.61 32.9759 154.684 33.0502 154.684 33.199C154.684 33.3479 154.61 33.4223 154.462 33.4223H151.629C151.48 33.4223 151.407 33.3479 151.407 33.199Z" fill="#43434B"/>
</svg>
