<svg width="185" height="40" viewBox="0 0 185 40" fill="none" xmlns="http://www.w3.org/2000/svg">
<path d="M12.3381 26.7759C12.168 26.7759 12.0149 26.7163 11.8788 26.5971C11.7597 26.4608 11.7002 26.3076 11.7002 26.1372V9.53227C11.7002 9.34491 11.7597 9.19163 11.8788 9.07243C12.0149 8.95323 12.168 8.89355 12.3381 8.89355H19.2784C21.5068 8.89355 23.2418 9.40451 24.4836 10.4264C25.7424 11.4312 26.3717 12.8618 26.3717 14.7181C26.3717 15.9103 26.0911 16.9236 25.5297 17.7581C24.9684 18.5926 24.1944 19.2312 23.2078 19.674L26.7035 25.9584C26.7544 26.0606 26.78 26.1543 26.78 26.2394C26.78 26.3756 26.7204 26.5034 26.6014 26.6226C26.4993 26.7248 26.3803 26.7759 26.2441 26.7759H22.8506C22.3572 26.7759 22.0085 26.546 21.8044 26.0861L18.8956 20.466H16.293V26.1372C16.293 26.3246 16.225 26.4779 16.0889 26.5971C15.9698 26.7163 15.8168 26.7759 15.6296 26.7759H12.3381ZM19.2273 16.8384C20.0098 16.8384 20.6052 16.6511 21.0134 16.2764C21.4217 15.8848 21.6258 15.3483 21.6258 14.667C21.6258 13.9858 21.4217 13.4493 21.0134 13.0576C20.6222 12.6488 20.0268 12.4445 19.2273 12.4445H16.293V16.8384H19.2273Z" fill="#43434B"/>
<path d="M29.6741 11.5765C29.4869 11.5765 29.3338 11.5169 29.2148 11.3976C29.0957 11.2784 29.0361 11.1251 29.0361 10.9378V8.63864C29.0361 8.45128 29.0957 8.298 29.2148 8.1788C29.3338 8.0596 29.4869 8 29.6741 8H32.7359C32.923 8 33.0761 8.0596 33.1952 8.1788C33.3143 8.298 33.3738 8.45128 33.3738 8.63864V10.9378C33.3738 11.1251 33.3143 11.2784 33.1952 11.3976C33.0761 11.5169 32.923 11.5765 32.7359 11.5765H29.6741ZM29.6996 26.7764C29.5125 26.7764 29.3593 26.7168 29.2403 26.5976C29.1212 26.4784 29.0617 26.3251 29.0617 26.1378V14.131C29.0617 13.9438 29.1212 13.7905 29.2403 13.6713C29.3593 13.552 29.5125 13.4924 29.6996 13.4924H32.7105C32.8975 13.4924 33.0506 13.552 33.1697 13.6713C33.2888 13.7905 33.3483 13.9438 33.3483 14.131V26.1378C33.3483 26.3081 33.2888 26.4614 33.1697 26.5976C33.0506 26.7168 32.8975 26.7764 32.7105 26.7764H29.6996Z" fill="#43434B"/>
<path d="M44.4768 27.032C42.7758 27.032 41.4574 26.4614 40.5218 25.3204V26.1378C40.5218 26.3081 40.4623 26.4614 40.3433 26.5976C40.2242 26.7168 40.0711 26.7764 39.884 26.7764H37.0007C36.8306 26.7764 36.6775 26.7168 36.5414 26.5976C36.4223 26.4614 36.3628 26.3081 36.3628 26.1378V9.27731C36.3628 9.09003 36.4223 8.93675 36.5414 8.81747C36.6775 8.69827 36.8306 8.63867 37.0007 8.63867H40.1136C40.3007 8.63867 40.4538 8.69827 40.5729 8.81747C40.692 8.93675 40.7515 9.09003 40.7515 9.27731V14.7442C41.7041 13.7394 42.9458 13.237 44.4768 13.237C46.1268 13.237 47.4282 13.7735 48.3807 14.8464C49.3333 15.9193 49.8436 17.3755 49.9117 19.2148C49.9286 19.4362 49.9372 19.7428 49.9372 20.1344C49.9372 20.5092 49.9286 20.8072 49.9117 21.0286C49.8266 22.936 49.3163 24.4177 48.3807 25.4736C47.4451 26.5125 46.1438 27.032 44.4768 27.032ZM43.099 23.6088C43.8985 23.6088 44.4683 23.3703 44.8085 22.8935C45.1658 22.4166 45.3698 21.7609 45.4209 20.9264C45.4549 20.5858 45.4719 20.3218 45.4719 20.1344C45.4719 19.9472 45.4549 19.6832 45.4209 19.3425C45.3698 18.508 45.1658 17.8524 44.8085 17.3755C44.4683 16.8986 43.8985 16.6602 43.099 16.6602C42.3505 16.6602 41.7806 16.8901 41.3894 17.35C40.9982 17.8098 40.7855 18.3888 40.7515 19.0871L40.726 20.0323L40.7515 21.003C40.8026 21.7694 41.0066 22.3996 41.3639 22.8935C41.7382 23.3703 42.3165 23.6088 43.099 23.6088Z" fill="#43434B"/>
<path d="M60.5735 27.032C58.8724 27.032 57.5541 26.4614 56.6185 25.3204V26.1378C56.6185 26.3081 56.559 26.4614 56.4399 26.5976C56.3208 26.7168 56.1677 26.7764 55.9806 26.7764H53.0973C52.9272 26.7764 52.7741 26.7168 52.638 26.5976C52.519 26.4614 52.4595 26.3081 52.4595 26.1378V9.27731C52.4595 9.09003 52.519 8.93675 52.638 8.81747C52.7741 8.69827 52.9272 8.63867 53.0973 8.63867H56.2103C56.3974 8.63867 56.5504 8.69827 56.6695 8.81747C56.7886 8.93675 56.8481 9.09003 56.8481 9.27731V14.7442C57.8008 13.7394 59.0425 13.237 60.5735 13.237C62.2235 13.237 63.5248 13.7735 64.4773 14.8464C65.43 15.9193 65.9403 17.3755 66.0083 19.2148C66.0253 19.4362 66.0338 19.7428 66.0338 20.1344C66.0338 20.5092 66.0253 20.8072 66.0083 21.0286C65.9232 22.936 65.4129 24.4177 64.4773 25.4736C63.5418 26.5125 62.2404 27.032 60.5735 27.032ZM59.1955 23.6088C59.9951 23.6088 60.5649 23.3703 60.9052 22.8935C61.2624 22.4166 61.4665 21.7609 61.5176 20.9264C61.5516 20.5858 61.5685 20.3218 61.5685 20.1344C61.5685 19.9472 61.5516 19.6832 61.5176 19.3425C61.4665 18.508 61.2624 17.8524 60.9052 17.3755C60.5649 16.8986 59.9951 16.6602 59.1955 16.6602C58.4471 16.6602 57.8772 16.8901 57.486 17.35C57.0947 17.8098 56.8822 18.3888 56.8481 19.0871L56.8226 20.0323L56.8481 21.003C56.8992 21.7694 57.1033 22.3996 57.4605 22.8935C57.8347 23.3703 58.4131 23.6088 59.1955 23.6088Z" fill="#43434B"/>
<path d="M69.1677 11.5765C68.9806 11.5765 68.8275 11.5169 68.7084 11.3976C68.5893 11.2784 68.5298 11.1251 68.5298 10.9378V8.63864C68.5298 8.45128 68.5893 8.298 68.7084 8.1788C68.8275 8.0596 68.9806 8 69.1677 8H72.2295C72.4167 8 72.5698 8.0596 72.6888 8.1788C72.8079 8.298 72.8675 8.45128 72.8675 8.63864V10.9378C72.8675 11.1251 72.8079 11.2784 72.6888 11.3976C72.5698 11.5169 72.4167 11.5765 72.2295 11.5765H69.1677ZM69.1932 26.7764C69.0061 26.7764 68.853 26.7168 68.7339 26.5976C68.6148 26.4784 68.5553 26.3251 68.5553 26.1378V14.131C68.5553 13.9438 68.6148 13.7905 68.7339 13.6713C68.853 13.552 69.0061 13.4924 69.1932 13.4924H72.204C72.3911 13.4924 72.5443 13.552 72.6633 13.6713C72.7824 13.7905 72.8419 13.9438 72.8419 14.131V26.1378C72.8419 26.3081 72.7824 26.4614 72.6633 26.5976C72.5443 26.7168 72.3911 26.7764 72.204 26.7764H69.1932Z" fill="#43434B"/>
<path d="M82.6438 26.7764C79.1222 26.7764 77.3617 25.0989 77.3617 21.7439V16.839H75.3714C75.1843 16.839 75.0227 16.7794 74.8866 16.6602C74.7676 16.541 74.708 16.3877 74.708 16.2004V14.1311C74.708 13.9438 74.7676 13.7905 74.8866 13.6713C75.0227 13.552 75.1843 13.4924 75.3714 13.4924H77.3617V9.27731C77.3617 9.09003 77.4212 8.93675 77.5402 8.81747C77.6764 8.69827 77.8294 8.63867 77.9995 8.63867H80.9598C81.1462 8.63867 81.2998 8.69827 81.419 8.81747C81.5374 8.93675 81.5974 9.09003 81.5974 9.27731V13.4924H84.787C84.9742 13.4924 85.127 13.552 85.2462 13.6713C85.3822 13.7905 85.4502 13.9438 85.4502 14.1311V16.2004C85.4502 16.3877 85.3822 16.541 85.2462 16.6602C85.127 16.7794 84.9742 16.839 84.787 16.839H81.5974V21.3862C81.5974 22.6465 82.0822 23.2766 83.0518 23.2766H85.0166C85.2038 23.2766 85.3566 23.3363 85.4758 23.4555C85.595 23.5747 85.6542 23.728 85.6542 23.9153V26.1378C85.6542 26.3081 85.595 26.4614 85.4758 26.5976C85.3566 26.7168 85.2038 26.7764 85.0166 26.7764H82.6438Z" fill="#43434B"/>
<path d="M101.165 27.032C98.8861 27.032 97.1509 26.4188 95.9605 25.1926C94.7869 23.9664 94.1573 22.2718 94.0725 20.1089C94.0549 19.6491 94.0469 18.8997 94.0469 17.8608C94.0469 16.8049 94.0549 16.0386 94.0725 15.5617C94.1573 13.4158 94.7949 11.7298 95.9861 10.5036C97.1765 9.26027 98.9029 8.63867 101.165 8.63867C102.68 8.63867 103.964 8.91115 105.018 9.45619C106.073 9.98411 106.872 10.6824 107.417 11.5509C107.961 12.4196 108.259 13.3477 108.31 14.3355V14.3866C108.31 14.5228 108.25 14.642 108.132 14.7442C108.029 14.8294 107.91 14.872 107.774 14.872H106.371C106.031 14.872 105.818 14.6761 105.732 14.2844C105.444 13.0071 104.924 12.113 104.176 11.602C103.428 11.0741 102.424 10.8101 101.165 10.8101C98.2397 10.8101 96.7261 12.4365 96.6237 15.6894C96.6069 16.1492 96.5981 16.856 96.5981 17.8098C96.5981 18.7635 96.6069 19.4873 96.6237 19.9812C96.7261 23.234 98.2397 24.8605 101.165 24.8605C102.424 24.8605 103.428 24.605 104.176 24.0941C104.942 23.5662 105.46 22.6636 105.732 21.3862C105.784 21.1648 105.86 21.0116 105.963 20.9264C106.064 20.8412 106.2 20.7987 106.371 20.7987H107.774C107.927 20.7987 108.055 20.8497 108.156 20.952C108.276 21.0371 108.327 21.1563 108.31 21.3096C108.259 22.3144 107.961 23.2511 107.417 24.1196C106.872 24.9882 106.073 25.695 105.018 26.24C103.964 26.768 102.68 27.032 101.165 27.032Z" fill="#43434B"/>
<path d="M115.097 27.0313C114.264 27.0313 113.49 26.861 112.776 26.5203C112.061 26.1797 111.492 25.7198 111.066 25.1408C110.658 24.5447 110.453 23.889 110.453 23.1738C110.453 22.0498 110.913 21.1301 111.832 20.4148C112.767 19.6825 114.026 19.2056 115.608 18.9842L119.41 18.4478V17.7069C119.41 15.9698 118.415 15.1012 116.424 15.1012C115.676 15.1012 115.064 15.263 114.587 15.5866C114.111 15.8931 113.754 16.2593 113.516 16.685C113.464 16.8383 113.396 16.949 113.312 17.0171C113.244 17.0853 113.141 17.1194 113.005 17.1194H111.908C111.755 17.1194 111.619 17.0682 111.5 16.9661C111.398 16.8469 111.347 16.7106 111.347 16.5574C111.364 16.1486 111.551 15.6887 111.908 15.1778C112.282 14.6498 112.852 14.1986 113.617 13.8239C114.383 13.4322 115.327 13.2363 116.45 13.2363C118.355 13.2363 119.724 13.6876 120.558 14.5902C121.392 15.4758 121.808 16.5829 121.808 17.9113V26.1882C121.808 26.3586 121.748 26.5033 121.629 26.6225C121.528 26.7247 121.392 26.7758 121.221 26.7758H120.048C119.877 26.7758 119.733 26.7247 119.614 26.6225C119.512 26.5033 119.46 26.3586 119.46 26.1882V25.0898C119.087 25.6347 118.542 26.0946 117.828 26.4692C117.113 26.8439 116.203 27.0313 115.097 27.0313ZM115.633 25.1153C116.739 25.1153 117.64 24.7576 118.338 24.0423C119.052 23.31 119.41 22.2626 119.41 20.9002V20.1849L116.45 20.6191C115.242 20.7894 114.332 21.079 113.72 21.4878C113.108 21.8794 112.801 22.3818 112.801 22.995C112.801 23.6762 113.082 24.2042 113.643 24.5788C114.204 24.9365 114.868 25.1153 115.633 25.1153Z" fill="#43434B"/>
<path d="M126.09 31.6295C125.92 31.6295 125.775 31.5699 125.656 31.4507C125.554 31.3486 125.503 31.2123 125.503 31.042V14.0794C125.503 13.909 125.554 13.7728 125.656 13.6706C125.775 13.5514 125.92 13.4918 126.09 13.4918H127.263C127.434 13.4918 127.57 13.5514 127.672 13.6706C127.791 13.7728 127.851 13.909 127.851 14.0794V15.2034C128.803 13.892 130.198 13.2363 132.035 13.2363C133.821 13.2363 135.156 13.7983 136.041 14.9224C136.943 16.0464 137.427 17.494 137.495 19.2652C137.512 19.4526 137.521 19.7421 137.521 20.1338C137.521 20.5255 137.512 20.815 137.495 21.0023C137.427 22.7565 136.943 24.2042 136.041 25.3452C135.139 26.4692 133.804 27.0313 132.035 27.0313C130.266 27.0313 128.888 26.3926 127.902 25.1153V31.042C127.902 31.2123 127.851 31.3486 127.748 31.4507C127.647 31.5699 127.511 31.6295 127.34 31.6295H126.09ZM131.499 24.962C132.707 24.962 133.583 24.5874 134.127 23.838C134.689 23.0886 134.995 22.1008 135.046 20.8746C135.063 20.7043 135.071 20.4574 135.071 20.1338C135.071 16.915 133.881 15.3055 131.499 15.3055C130.326 15.3055 129.441 15.6973 128.846 16.4807C128.267 17.247 127.953 18.1667 127.902 19.2397L127.876 20.2104L127.902 21.2067C127.935 22.2115 128.259 23.0886 128.871 23.838C129.483 24.5874 130.359 24.962 131.499 24.962Z" fill="#43434B"/>
<path d="M141.059 11.0147C140.889 11.0147 140.745 10.9636 140.626 10.8615C140.523 10.7422 140.472 10.5974 140.472 10.4271V9.04761C140.472 8.87737 140.523 8.73257 140.626 8.61337C140.745 8.49417 140.889 8.43457 141.059 8.43457H142.667C142.837 8.43457 142.982 8.49417 143.1 8.61337C143.219 8.73257 143.279 8.87737 143.279 9.04761V10.4271C143.279 10.5974 143.219 10.7422 143.1 10.8615C142.982 10.9636 142.837 11.0147 142.667 11.0147H141.059ZM141.263 26.7766C141.093 26.7766 140.949 26.7256 140.83 26.6234C140.727 26.5042 140.676 26.3594 140.676 26.1891V14.0803C140.676 13.9099 140.727 13.7737 140.83 13.6715C140.949 13.5522 141.093 13.4926 141.263 13.4926H142.488C142.659 13.4926 142.795 13.5522 142.896 13.6715C143.015 13.7737 143.075 13.9099 143.075 14.0803V26.1891C143.075 26.3594 143.015 26.5042 142.896 26.6234C142.795 26.7256 142.659 26.7766 142.488 26.7766H141.263Z" fill="#43434B"/>
<path d="M152.036 26.7764C149.348 26.7764 148.004 25.2777 148.004 22.2804V15.5361H146.013C145.844 15.5361 145.699 15.4851 145.58 15.3828C145.478 15.2636 145.427 15.1189 145.427 14.9486V14.08C145.427 13.9097 145.478 13.7735 145.58 13.6713C145.699 13.552 145.844 13.4924 146.013 13.4924H148.004V9.22627C148.004 9.05595 148.055 8.91971 148.157 8.81747C148.276 8.69827 148.42 8.63867 148.591 8.63867H149.79C149.96 8.63867 150.096 8.69827 150.198 8.81747C150.317 8.91971 150.376 9.05595 150.376 9.22627V13.4924H153.54C153.711 13.4924 153.847 13.552 153.949 13.6713C154.068 13.7735 154.128 13.9097 154.128 14.08V14.9486C154.128 15.1189 154.068 15.2636 153.949 15.3828C153.847 15.4851 153.711 15.5361 153.54 15.5361H150.376V22.1015C150.376 22.9531 150.521 23.6002 150.811 24.043C151.1 24.4688 151.576 24.6816 152.24 24.6816H153.796C153.966 24.6816 154.102 24.7413 154.204 24.8605C154.323 24.9627 154.383 25.0989 154.383 25.2692V26.1889C154.383 26.3592 154.323 26.504 154.204 26.6232C154.102 26.7254 153.966 26.7764 153.796 26.7764H152.036Z" fill="#43434B"/>
<path d="M160.524 27.0313C159.69 27.0313 158.916 26.861 158.201 26.5203C157.487 26.1797 156.917 25.7198 156.492 25.1408C156.084 24.5447 155.88 23.889 155.88 23.1738C155.88 22.0498 156.339 21.1301 157.257 20.4148C158.193 19.6825 159.452 19.2056 161.033 18.9842L164.836 18.4478V17.7069C164.836 15.9698 163.841 15.1012 161.85 15.1012C161.101 15.1012 160.489 15.263 160.013 15.5866C159.537 15.8931 159.18 16.2593 158.941 16.685C158.89 16.8383 158.822 16.949 158.737 17.0171C158.669 17.0853 158.567 17.1194 158.431 17.1194H157.334C157.181 17.1194 157.045 17.0682 156.925 16.9661C156.824 16.8469 156.773 16.7106 156.773 16.5574C156.789 16.1486 156.977 15.6887 157.334 15.1778C157.708 14.6498 158.278 14.1986 159.044 13.8239C159.809 13.4322 160.753 13.2363 161.876 13.2363C163.781 13.2363 165.15 13.6876 165.984 14.5902C166.817 15.4758 167.234 16.5829 167.234 17.9113V26.1882C167.234 26.3586 167.174 26.5033 167.056 26.6225C166.953 26.7247 166.817 26.7758 166.647 26.7758H165.473C165.303 26.7758 165.159 26.7247 165.04 26.6225C164.937 26.5033 164.886 26.3586 164.886 26.1882V25.0898C164.513 25.6347 163.968 26.0946 163.253 26.4692C162.539 26.8439 161.629 27.0313 160.524 27.0313ZM161.059 25.1153C162.165 25.1153 163.066 24.7576 163.764 24.0423C164.478 23.31 164.836 22.2626 164.836 20.9002V20.1849L161.876 20.6191C160.668 20.7894 159.758 21.079 159.145 21.4878C158.533 21.8794 158.227 22.3818 158.227 22.995C158.227 23.6762 158.508 24.2042 159.069 24.5788C159.63 24.9365 160.293 25.1153 161.059 25.1153Z" fill="#43434B"/>
<path d="M171.513 26.7764C171.344 26.7764 171.199 26.7254 171.08 26.6232C170.978 26.504 170.927 26.3592 170.927 26.1889V9.22627C170.927 9.05595 170.978 8.91971 171.08 8.81747C171.199 8.69827 171.344 8.63867 171.513 8.63867H172.712C172.883 8.63867 173.019 8.69827 173.121 8.81747C173.24 8.91971 173.3 9.05595 173.3 9.22627V26.1889C173.3 26.3592 173.24 26.504 173.121 26.6232C173.019 26.7254 172.883 26.7764 172.712 26.7764H171.513Z" fill="#43434B"/>
</svg>
