<svg width="28" height="29" viewBox="0 0 28 29" fill="none" xmlns="http://www.w3.org/2000/svg">
<g clip-path="url(#clip0_204_45)">
<path d="M10.1064 23.4113C18.029 23.4113 22.3635 16.8459 22.3635 11.1542C22.3635 10.9696 22.3594 10.7809 22.3512 10.5964C23.1944 9.98656 23.9221 9.23126 24.5 8.36592C23.7147 8.71531 22.8809 8.94349 22.0272 9.04268C22.9261 8.50383 23.5992 7.65732 23.9217 6.66008C23.076 7.16127 22.1511 7.51482 21.1868 7.70557C20.537 7.01515 19.6779 6.55801 18.7422 6.40483C17.8066 6.25165 16.8465 6.41095 16.0105 6.85812C15.1745 7.30529 14.5091 8.0154 14.1171 8.87868C13.7252 9.74196 13.6285 10.7103 13.8421 11.634C12.1297 11.5481 10.4544 11.1033 8.92498 10.3284C7.39552 9.55347 6.04598 8.46579 4.96385 7.13586C4.41385 8.08412 4.24555 9.20622 4.49315 10.2741C4.74075 11.342 5.38568 12.2756 6.29686 12.885C5.6128 12.8633 4.94373 12.6791 4.34492 12.3477V12.401C4.34431 13.3962 4.68834 14.3608 5.31852 15.131C5.94871 15.9011 6.82616 16.4293 7.80172 16.6256C7.16805 16.799 6.50298 16.8243 5.85799 16.6995C6.13327 17.5553 6.66888 18.3038 7.39005 18.8406C8.11122 19.3773 8.98198 19.6756 9.8808 19.6936C8.35487 20.8923 6.4699 21.5424 4.52949 21.5393C4.18538 21.5388 3.8416 21.5177 3.5 21.4762C5.47125 22.7408 7.76434 23.4125 10.1064 23.4113Z" fill="#3B3F49"/>
</g>
<defs>
<clipPath id="clip0_204_45">
<rect width="21" height="21" fill="white" transform="translate(3.5 4.37988)"/>
</clipPath>
</defs>
</svg>
