<svg width="185" height="40" viewBox="0 0 185 40" fill="none" xmlns="http://www.w3.org/2000/svg">
<path d="M109.472 21.8328C110.056 20.55 110.914 19.3862 111.536 18.1172C111.75 17.6784 111.845 16.8483 111.588 16.598C111.192 16.2108 110.42 15.9705 109.849 16.032C109.151 16.1095 108.487 16.5424 107.828 16.8641C107.616 16.9674 107.472 17.2037 107.296 17.3785C107.355 17.44 107.414 17.5016 107.471 17.5632C107.768 17.3804 108.053 17.17 108.368 17.023C108.692 16.8701 109.044 16.7788 109.384 16.6616C109.41 16.7252 109.434 16.7907 109.459 16.8542C106.496 19.0546 103.536 21.2569 100.575 23.4572C100.789 23.0264 101.096 22.6649 101.413 22.3114C101.686 22.0056 101.972 21.7117 102.253 21.4138C102.18 21.3523 102.108 21.2927 102.032 21.2311C100.146 22.7304 98.4941 24.5535 95.8965 25.5722C96.0405 24.8514 96.0645 24.3271 96.2509 23.8664C96.8341 22.4405 97.4084 21.0008 98.1356 19.6424C98.4468 19.0546 98.3844 18.6077 97.9228 18.4052C97.4069 18.1788 96.5925 17.9782 96.1957 18.2205C95.0685 18.9056 94.0725 19.8052 93.0517 20.6532C90.3109 22.933 87.3484 24.8891 84.138 26.4699C83.4236 26.8213 82.6381 27.0855 81.8541 27.2304C81.0205 27.3834 80.3116 27.0239 79.9877 26.2077C79.6921 25.461 80.4371 25.32 80.8181 24.9447C82.1845 23.6042 83.5325 22.2439 84.8445 20.8518C85.4357 20.2263 85.4661 19.4597 84.9541 18.7646C84.4885 18.1351 83.1605 17.7637 82.4741 18.1569C81.6821 18.6117 80.7933 19.1141 80.3076 19.8291C79.5058 21.0127 79.0058 22.3888 78.3519 23.6717C78.1818 24.0034 77.9753 24.4065 77.6716 24.5654C76.1917 25.332 74.6855 26.0528 73.163 26.734C72.4059 27.0736 71.6204 27.3893 70.8268 26.6625C70.6405 26.4917 70.1405 26.6506 69.7861 26.6565C69.8449 26.9802 69.8044 27.3715 69.9805 27.6177C70.5069 28.3584 71.26 28.8569 72.2115 28.706C73.2805 28.5352 74.3575 28.3048 75.3718 27.9414C76.4286 27.5621 77.4165 26.9961 78.3883 26.5334C78.4895 26.5811 78.528 26.589 78.5482 26.6108C78.6313 26.7121 78.7163 26.8154 78.7851 26.9246C79.5686 28.1698 80.6557 28.8768 82.2005 28.7596C84.5933 28.5808 86.6565 27.58 88.5676 26.2494C90.4485 24.9368 92.2925 23.5744 94.1733 22.22C94.1733 23.2944 94.0476 24.3152 94.202 25.2922C94.4732 27.0299 96.4452 27.8719 97.994 26.9664C98.7404 26.5314 99.4516 26.0191 100.113 25.467C102.28 23.6618 104.405 21.813 106.568 20.0058C107.084 19.5748 107.687 19.2472 108.499 18.7051C108.324 19.2512 108.252 19.5173 108.156 19.7774C107.712 20.9789 107.22 22.1644 106.823 23.3818C106.201 25.3002 106.808 26.8194 108.532 27.846C109.468 28.4041 110.546 28.0884 111.124 27.0418C110.714 27.012 110.323 26.9365 109.938 26.9644C108.656 27.0636 108.09 26.5969 108.345 25.3776C108.596 24.1682 108.96 22.9568 109.472 21.8328ZM107.424 24.7223C107.331 24.6944 107.238 24.6667 107.144 24.6388C107.537 23.491 107.932 22.3412 108.324 21.1934C108.46 21.2371 108.594 21.2808 108.73 21.3264C108.294 22.4584 107.859 23.5904 107.424 24.7223Z" fill="#43434B"/>
<path d="M138.2 18.2146C137.058 18.9534 135.848 19.6266 134.841 20.5202C133.13 22.0394 131.588 23.7394 129.904 25.2884C129.304 25.8405 128.498 26.1761 127.786 26.611L127.555 26.3548C128.019 23.656 129.618 21.4774 131.27 18.9931C130.585 18.6953 129.897 18.1154 129.32 18.2067C128.26 18.3735 127.284 19.005 126.235 19.3188C124.777 19.7538 123.283 20.0714 121.51 20.5143C121.894 19.8054 122.109 19.3744 122.356 18.9614C123.366 17.2774 124.404 15.6092 125.396 13.9152C125.953 12.96 126.494 11.989 126.937 10.9801C127.188 10.4102 126.97 10.0368 126.243 9.76673C125.52 9.49865 125.304 9.70913 125.006 10.2414C124.383 11.3574 123.684 12.4338 123.071 13.5578C121.856 15.782 120.694 18.0339 119.467 20.2502C119.301 20.5501 118.908 20.8499 118.572 20.9135C117.552 21.1101 116.503 21.1598 115.475 21.3305C115.011 21.408 114.572 21.6363 114.122 21.7972C114.499 22.1845 114.812 22.6889 115.27 22.9172C115.628 23.0979 116.165 22.9291 116.624 22.9232C117.013 22.9172 117.404 22.9212 117.819 22.9212C117.788 23.1178 117.795 23.221 117.758 23.3085C117.082 24.9786 116.459 26.6726 115.697 28.303C115.286 29.1846 116.167 29.147 116.408 29.556C116.716 29.3475 117.04 29.1569 117.327 28.9246C117.447 28.8292 117.497 28.6465 117.564 28.4976C118.242 26.9546 118.868 25.3857 119.612 23.8744C119.992 23.1039 120.419 22.377 121.552 22.25C122.874 22.105 124.16 21.6363 125.464 21.3206C126.063 21.1736 126.668 21.0565 127.432 20.8916C126.994 21.9601 126.565 22.8159 126.293 23.7175C125.879 25.0938 125.305 26.47 126.712 27.7608C127.458 28.4439 128.112 28.9146 128.966 28.4479C129.95 27.9098 130.96 27.3021 131.721 26.5058C134.135 23.9777 136.439 21.3504 138.779 18.7529C138.908 18.6078 138.967 18.4014 139.139 18.0658C138.692 18.1293 138.39 18.0895 138.2 18.2146ZM117.062 27.59C116.938 26.5176 118.501 23.235 119.431 22.7385C118.612 24.4146 117.857 25.9616 117.062 27.59ZM131.348 24.7125C132.912 23.229 134.377 21.8369 135.89 20.4011C135.669 21.4735 132.48 24.5278 131.348 24.7125Z" fill="#43434B"/>
<path d="M173.621 27.0268C172.72 24.2844 171.712 21.5736 170.735 18.855C170.451 18.0646 169.571 17.9633 168.992 18.6087C168.352 19.3196 167.728 20.0524 167.02 20.6919C165.558 22.0165 164.112 23.3688 162.531 24.5465C161.474 25.3349 160.152 25.7003 158.638 25.7757C159.077 25.1959 159.413 24.7908 159.707 24.3578C160.003 23.9209 160.274 23.4662 160.527 23.0035C161.124 21.9052 160.806 20.5132 159.828 19.8618C158.908 19.2501 157.441 19.4785 156.658 20.3801C155.585 21.6153 155.039 22.9995 155.34 24.6597C155.38 24.89 155.109 25.323 154.875 25.4282C153.452 26.0558 152.068 26.8799 150.372 26.4152C150.149 26.3536 149.681 26.6197 149.58 26.8461C149.492 27.0388 149.684 27.5432 149.888 27.6405C150.528 27.9483 151.273 28.3991 151.899 28.3038C153.332 28.0833 154.712 27.5412 156.13 27.1936C156.597 27.0785 157.124 27.1024 157.612 27.1599C158.225 27.2314 158.826 27.5114 159.434 27.5114C161.132 27.5094 162.647 26.7866 163.975 25.879C165.684 24.7073 167.218 23.2934 168.959 21.8775C169.2 22.1912 169.657 22.6341 169.923 23.1663C170.449 24.2268 170.931 25.317 171.322 26.4311C172.16 28.8241 172.496 30.8516 169.144 32.1286C169.125 32.1345 169.125 32.1842 169.117 32.214C170.212 33.4592 173.158 32.5675 173.804 30.9788C174.358 29.6144 174.04 28.2978 173.621 27.0268ZM157.49 23.9785C157.381 23.913 157.272 23.8475 157.164 23.78C157.265 22.6222 157.83 21.7345 158.855 21.1169C158.96 21.1864 159.068 21.2579 159.172 21.3294C158.612 22.2111 158.051 23.0948 157.49 23.9785Z" fill="#43434B"/>
<path d="M54.2483 24.2231C54.8476 24.2291 55.0763 24.0503 55.0804 23.4347C55.0966 20.9365 53.8454 18.8891 51.7217 18.0331C49.3713 17.0879 46.5875 17.6161 44.8829 19.3299C42.7551 21.4667 42.5486 25.2716 44.4375 27.5038C46.2859 29.6883 50.2701 30.2244 52.7562 28.6159C53.7098 27.9983 54.386 27.1741 54.6897 25.9409C53.4871 25.8813 52.4201 25.2617 51.3391 26.4592C50.5029 27.3847 49.1809 27.3091 48.033 26.7829C47.0127 26.3162 46.4883 25.4841 46.4438 24.2151H47.5755C49.8005 24.2131 52.0254 24.1993 54.2483 24.2231ZM49.0089 19.9515C50.5373 19.8462 51.578 20.7995 51.746 22.5411H46.5531C46.5309 21.141 47.5836 20.0468 49.0089 19.9515Z" fill="#43434B"/>
<path d="M30.8634 18.0264C31.0355 17.9588 31.0963 17.9192 31.159 17.9132C34.0379 17.6392 34.0379 17.6392 34.0379 20.4174C34.0379 21.8016 34.0096 23.1857 34.0562 24.5679C34.1088 26.1427 34.7667 26.939 35.9834 27.0264C37.2205 27.1157 38.2489 26.3492 38.4028 24.8717C38.591 23.0764 38.5242 21.2574 38.5546 19.4463C38.583 17.7185 38.3502 17.8933 40.2026 17.8794C40.6986 17.8755 41.1946 17.8794 41.7432 17.8794V29.2069C40.8261 29.2069 39.9313 29.2327 39.0405 29.1831C38.8725 29.1732 38.6254 28.8832 38.583 28.6886C38.508 28.345 38.5627 27.9756 38.5627 27.3024C37.5808 28.7442 36.5038 29.5226 34.955 29.5246C32.6289 29.5286 31.0518 28.3808 30.9039 26.1268C30.7298 23.4419 30.8634 20.7391 30.8634 18.0264Z" fill="#43434B"/>
<path d="M77.5402 12.605C76.5663 13.4986 75.6128 14.3128 74.7301 15.1966C73.8393 16.0843 73.0235 17.0434 72.1691 17.9649C71.3512 18.8486 70.5252 19.7264 69.7032 20.6041C69.5757 20.4988 69.4462 20.3936 69.3186 20.2864C70.8248 18.4752 72.3311 16.6621 73.8373 14.851C73.566 14.857 73.4041 14.9583 73.2867 15.0953C70.8977 17.8815 68.5311 20.6836 66.1199 23.4499C65.2919 24.4031 64.3545 25.263 63.4657 26.1646C63.3949 26.103 63.326 26.0415 63.2572 25.9799C63.2572 24.983 63.0771 23.9464 63.2896 22.9932C63.9779 19.921 64.8242 16.8826 65.5854 13.8244C65.9113 12.5156 66.213 11.199 66.4479 9.87244C66.5895 9.07012 65.7777 8.387 64.7999 8.26188C63.7411 8.12684 63.8807 8.8338 63.8362 9.44548C63.818 9.70756 63.7917 9.97172 63.7391 10.2279C62.8847 14.3526 61.9514 18.4633 61.2023 22.6039C60.9371 24.0695 60.9533 25.6304 61.1315 27.1158C61.3643 29.072 63.1296 29.7193 64.6035 28.3968C65.9559 27.1833 67.1888 25.8171 68.3347 24.4111C69.8348 22.5721 71.1791 20.612 72.6247 18.7295C73.8292 17.1626 75.6492 16.0584 76.3011 14.0646C76.3376 13.9514 76.5563 13.8382 76.7 13.8263C77.6981 13.7468 77.7001 13.7568 77.5402 12.605ZM66.4053 25.408C66.2615 25.2968 66.1179 25.1856 65.9721 25.0744C66.8527 23.4479 67.7031 21.7976 70.0332 21.4461C68.8246 22.7668 67.6159 24.0873 66.4053 25.408Z" fill="#43434B"/>
<path d="M19.6002 26.683C20.078 28.5894 19.8776 28.9429 18.0352 29.3501C17.5149 29.4653 16.9663 29.5189 16.4338 29.5009C14.4376 29.4315 13.4092 28.4206 13.3586 26.4566C13.3201 24.9096 13.3505 23.3606 13.3484 21.8117C13.3484 20.3501 13.3484 20.3501 11.9192 20.1832C11.4839 18.8665 11.654 18.7137 12.8261 18.108C13.3505 17.8359 13.6906 17.1051 13.9619 16.5153C14.1846 16.0307 14.0226 15.1173 14.3162 14.9802C14.8932 14.7101 15.6706 14.8491 16.4986 14.8134V17.8796C17.3914 17.8796 18.1547 17.8994 18.9159 17.8737C19.4868 17.8537 19.6629 18.0921 19.6872 18.6342C19.758 20.2567 19.7804 20.2567 18.102 20.2567C17.608 20.2567 17.112 20.2567 16.5371 20.2567C16.5371 22.2326 16.4905 24.0696 16.5573 25.9025C16.5897 26.8021 17.2578 27.2351 18.1729 27.0841C18.6324 27.0127 19.0738 26.8359 19.6002 26.683Z" fill="#43434B"/>
<path d="M21.5318 17.9472H24.7264C24.7568 18.4953 24.7831 18.9819 24.8175 19.6571C25.0483 19.3672 25.1638 19.1587 25.3359 19.0176C25.8926 18.5648 26.4068 17.9612 27.0527 17.7368C28.7674 17.1449 29.5488 17.7784 29.4415 19.5081C29.4152 19.951 29.3464 20.3919 29.2999 20.8129C29.1156 20.8288 29.0467 20.8506 28.9901 20.8367C26.1132 20.0642 24.7953 21.0552 24.7791 24.0121C24.771 25.4936 24.7609 26.9751 24.7851 28.4565C24.7933 28.9947 24.6191 29.1992 24.0422 29.233C21.5298 29.376 21.5298 29.3939 21.5298 26.9393C21.5318 23.9804 21.5318 21.0194 21.5318 17.9472Z" fill="#43434B"/>
<path d="M150.794 18.5427C149.23 19.1702 147.724 19.9408 146.224 20.7094C145.425 21.1204 144.69 21.6566 143.924 22.1352C144.038 21.5831 144.273 21.1602 144.527 20.749C145.376 19.3828 145.147 18.7414 143.554 18.1416C142.586 19.7005 141.602 21.2594 140.645 22.8342C139.894 24.0714 139.211 25.3483 138.43 26.5677C137.85 27.4713 138.612 27.8784 139.059 28.3709C139.201 28.5258 139.742 28.5674 139.899 28.4344C141.374 27.1952 142.778 25.8786 144.25 24.6354C146.744 22.5264 149.154 20.2387 152.766 20.1394C152.865 20.1354 152.96 19.9885 153.049 19.915C152.31 18.6162 151.722 18.1694 150.794 18.5427ZM142.542 24.7466C142.473 24.6831 142.406 24.6175 142.337 24.554C142.659 24.1667 142.922 23.708 143.313 23.4102C144.163 22.7588 145.08 22.1908 145.969 21.5871C146.04 21.6923 146.11 21.7976 146.182 21.9029C144.967 22.8501 143.754 23.7994 142.542 24.7466Z" fill="#43434B"/>
<path d="M84.7985 8.41478C84.1281 8.69478 83.7801 9.90022 82.5473 9.0523C81.6201 10.0253 80.6297 11.1097 79.5832 12.1344C79.2776 12.4322 78.8058 12.5753 78.3908 12.7441C78.3624 12.7559 78.1701 12.3786 78.2147 12.0469C78.3685 12.1304 78.5224 12.2118 78.7309 12.325C78.99 11.6101 79.2452 10.9071 79.4516 10.3411C79.8788 10.1345 80.31 9.96974 80.6945 9.73142C81.5649 9.19526 82.3729 8.54982 83.2841 8.0971C83.6809 7.90046 84.2657 8.06334 84.7657 8.06334C84.7761 8.17846 84.7865 8.29766 84.7985 8.41478Z" fill="#43434B"/>
</svg>
